<svg width="88" height="102" viewBox="0 0 88 102" fill="none" xmlns="http://www.w3.org/2000/svg">
<path d="M44 12L71.9 21.96L67.646 58.89L44 72L20.354 58.89L16.1 21.96L44 12ZM44 18.63L26.558 57.78H33.062L36.569 49.02H51.371L54.881 57.78H61.382L44 18.63ZM49.094 43.62H38.906L44 31.35L49.094 43.62Z" fill="white"/>
<path d="M18.6637 95.016H14.4717L13.7997 97H10.9357L14.9997 85.768H18.1677L22.2317 97H19.3357L18.6637 95.016ZM17.9597 92.904L16.5677 88.792L15.1917 92.904H17.9597ZM28.9086 87.976C29.9539 87.976 30.7859 88.3173 31.4046 89C32.0339 89.672 32.3486 90.6 32.3486 91.784V97H29.6286V92.152C29.6286 91.5547 29.4739 91.0907 29.1646 90.76C28.8552 90.4293 28.4392 90.264 27.9166 90.264C27.3939 90.264 26.9779 90.4293 26.6686 90.76C26.3592 91.0907 26.2046 91.5547 26.2046 92.152V97H23.4686V88.072H26.2046V89.256C26.4819 88.8613 26.8552 88.552 27.3246 88.328C27.7939 88.0933 28.3219 87.976 28.9086 87.976ZM37.6418 87.944C38.2711 87.944 38.8205 88.072 39.2898 88.328C39.7698 88.584 40.1378 88.92 40.3938 89.336V88.072H43.1298V96.984C43.1298 97.8053 42.9645 98.5467 42.6338 99.208C42.3138 99.88 41.8178 100.413 41.1458 100.808C40.4845 101.203 39.6578 101.4 38.6658 101.4C37.3431 101.4 36.2711 101.085 35.4498 100.456C34.6285 99.8373 34.1591 98.9947 34.0418 97.928H36.7458C36.8311 98.2693 37.0338 98.536 37.3538 98.728C37.6738 98.9307 38.0685 99.032 38.5378 99.032C39.1031 99.032 39.5511 98.8667 39.8818 98.536C40.2231 98.216 40.3938 97.6987 40.3938 96.984V95.72C40.1271 96.136 39.7591 96.4773 39.2898 96.744C38.8205 97 38.2711 97.128 37.6418 97.128C36.9058 97.128 36.2391 96.9413 35.6418 96.568C35.0445 96.184 34.5698 95.6453 34.2178 94.952C33.8765 94.248 33.7058 93.4373 33.7058 92.52C33.7058 91.6027 33.8765 90.7973 34.2178 90.104C34.5698 89.4107 35.0445 88.8773 35.6418 88.504C36.2391 88.1307 36.9058 87.944 37.6418 87.944ZM40.3938 92.536C40.3938 91.8533 40.2018 91.3147 39.8178 90.92C39.4445 90.5253 38.9858 90.328 38.4418 90.328C37.8978 90.328 37.4338 90.5253 37.0498 90.92C36.6765 91.304 36.4898 91.8373 36.4898 92.52C36.4898 93.2027 36.6765 93.7467 37.0498 94.152C37.4338 94.5467 37.8978 94.744 38.4418 94.744C38.9858 94.744 39.4445 94.5467 39.8178 94.152C40.2018 93.7573 40.3938 93.2187 40.3938 92.536ZM53.9252 88.072V97H51.1892V95.784C50.9119 96.1787 50.5332 96.4987 50.0532 96.744C49.5839 96.9787 49.0612 97.096 48.4852 97.096C47.8025 97.096 47.1999 96.9467 46.6772 96.648C46.1545 96.3387 45.7492 95.896 45.4612 95.32C45.1732 94.744 45.0292 94.0667 45.0292 93.288V88.072H47.7492V92.92C47.7492 93.5173 47.9039 93.9813 48.2132 94.312C48.5225 94.6427 48.9385 94.808 49.4612 94.808C49.9945 94.808 50.4159 94.6427 50.7252 94.312C51.0345 93.9813 51.1892 93.5173 51.1892 92.92V88.072H53.9252ZM58.6264 85.16V97H55.8904V85.16H58.6264ZM60.0652 92.52C60.0652 91.6027 60.2359 90.7973 60.5772 90.104C60.9292 89.4107 61.4039 88.8773 62.0012 88.504C62.5985 88.1307 63.2652 87.944 64.0012 87.944C64.6305 87.944 65.1799 88.072 65.6492 88.328C66.1292 88.584 66.4972 88.92 66.7532 89.336V88.072H69.4892V97H66.7532V95.736C66.4865 96.152 66.1132 96.488 65.6332 96.744C65.1639 97 64.6145 97.128 63.9852 97.128C63.2599 97.128 62.5985 96.9413 62.0012 96.568C61.4039 96.184 60.9292 95.6453 60.5772 94.952C60.2359 94.248 60.0652 93.4373 60.0652 92.52ZM66.7532 92.536C66.7532 91.8533 66.5612 91.3147 66.1772 90.92C65.8039 90.5253 65.3452 90.328 64.8012 90.328C64.2572 90.328 63.7932 90.5253 63.4092 90.92C63.0359 91.304 62.8492 91.8373 62.8492 92.52C62.8492 93.2027 63.0359 93.7467 63.4092 94.152C63.7932 94.5467 64.2572 94.744 64.8012 94.744C65.3452 94.744 65.8039 94.5467 66.1772 94.152C66.5612 93.7573 66.7532 93.2187 66.7532 92.536ZM74.2046 89.56C74.5246 89.0693 74.9246 88.6853 75.4046 88.408C75.8846 88.12 76.4179 87.976 77.0046 87.976V90.872H76.2526C75.5699 90.872 75.0579 91.0213 74.7166 91.32C74.3752 91.608 74.2046 92.12 74.2046 92.856V97H71.4686V88.072H74.2046V89.56Z" fill="white"/>
</svg>
