<svg width="60" height="60" viewBox="0 0 60 60" fill="none" xmlns="http://www.w3.org/2000/svg">
<g clip-path="url(#clip0_172432_1497)">
<path d="M49.8288 25.2144L30.6154 36.1587C30.2695 36.3621 29.8423 36.3621 29.4863 36.1587L10.2729 25.2144C9.52025 24.7873 9.52025 23.6989 10.2729 23.2616L29.4863 12.3173C29.8322 12.1139 30.2594 12.1139 30.6154 12.3173L49.8288 23.2616C50.5814 23.6888 50.5814 24.7771 49.8288 25.2144Z" fill="#9747FF"/>
<path d="M46.5028 28.8964V37.9183C46.5028 38.3251 46.2892 38.6913 45.9332 38.8947L30.6154 47.6216C30.2695 47.8251 29.8423 47.8251 29.4863 47.6216L14.1685 38.8947C13.8125 38.6913 13.5989 38.3251 13.5989 37.9183V28.8964L22.0919 33.7278L29.4863 37.9488C29.8322 38.1522 30.2594 38.1522 30.6154 37.9488L38.0098 33.7278L46.5028 28.8964Z" fill="#9747FF"/>
<path d="M55.4535 14.0058L55.9824 13.6396C56.6232 13.1921 56.5418 12.2258 55.84 11.8901L51.6291 9.88642C50.9171 9.55077 50.1136 10.1102 50.1746 10.8934L50.5815 15.5416C50.6526 16.3146 51.5375 16.7316 52.1783 16.2841L52.931 15.7654C59.6237 26.5469 57.8234 40.9086 48.4658 49.6559C39.2609 58.2607 25.072 59.3084 14.7279 52.1478C14.0363 51.6698 13.0802 51.8427 12.6021 52.5343C12.1241 53.226 12.297 54.1821 12.9886 54.6601C18.1048 58.1997 24.0549 59.939 29.9949 59.939C37.4301 59.939 44.8449 57.2131 50.5509 51.8834C60.9968 42.1088 63.0107 26.0281 55.4535 14.0058Z" fill="#9747FF"/>
<path d="M47.1131 5.27885C35.5992 -2.69539 19.8033 -1.5257 9.55076 8.05559C-1.15953 18.0742 -3.08189 34.0837 4.90252 46.3095L4.16002 46.8181C3.51923 47.2656 3.6006 48.2319 4.30242 48.5675L8.5133 50.5713C9.22528 50.9069 10.0288 50.3475 9.96778 49.5643L9.56094 44.9161C9.48974 44.1431 8.60484 43.726 7.96405 44.1736L7.41481 44.5601C0.3153 33.5853 2.03424 19.2541 11.6359 10.2831C20.8408 1.67823 35.0297 0.620428 45.3738 7.79114C46.0654 8.26918 47.0215 8.09627 47.4996 7.40463C47.9776 6.71299 47.8047 5.75689 47.1131 5.27885Z" fill="#9747FF"/>
</g>
<defs>
<clipPath id="clip0_172432_1497">
<rect width="60" height="59.939" fill="white"/>
</clipPath>
</defs>
</svg>
