<svg width="96" height="121" viewBox="0 0 96 121" fill="none" xmlns="http://www.w3.org/2000/svg">
<g clip-path="url(#clip0_105102_3392)">
<path d="M67.4727 37.245L48.2592 48.1892C47.9134 48.3926 47.4862 48.3926 47.1302 48.1892L27.9168 37.245C27.1641 36.8178 27.1641 35.7294 27.9168 35.2921L47.1302 24.3479C47.476 24.1444 47.9032 24.1444 48.2592 24.3479L67.4727 35.2921C68.2253 35.7193 68.2253 36.8076 67.4727 37.245Z" fill="#9747FF"/>
<path d="M64.1467 40.9269V49.9488C64.1467 50.3557 63.9331 50.7218 63.5771 50.9252L48.2592 59.6521C47.9134 59.8556 47.4862 59.8556 47.1302 59.6521L31.8124 50.9252C31.4564 50.7218 31.2428 50.3557 31.2428 49.9488V40.9269L39.7357 45.7583L47.1302 49.9793C47.476 50.1827 47.9032 50.1827 48.2592 49.9793L55.6537 45.7583L64.1467 40.9269Z" fill="#9747FF"/>
<path d="M73.0973 26.0363L73.6262 25.6701C74.267 25.2226 74.1857 24.2563 73.4838 23.9207L69.273 21.9169C68.561 21.5813 67.7575 22.1407 67.8185 22.9239L68.2253 27.5721C68.2965 28.3451 69.1814 28.7622 69.8222 28.3146L70.5749 27.7959C77.2675 38.5774 75.4672 52.9391 66.1097 61.6864C56.9048 70.2912 42.7159 71.3389 32.3718 64.1783C31.6802 63.7003 30.7241 63.8732 30.246 64.5648C29.768 65.2565 29.9409 66.2126 30.6325 66.6906C35.7486 70.2302 41.6988 71.9695 47.6388 71.9695C55.0739 71.9695 62.4888 69.2436 68.1948 63.9139C78.6407 54.1393 80.6546 38.0587 73.0973 26.0363Z" fill="#9747FF"/>
<path d="M64.7569 17.3094C53.2431 9.33513 37.4472 10.5048 27.1946 20.0861C16.4843 30.1047 14.562 46.1142 22.5464 58.34L21.8039 58.8486C21.1631 59.2961 21.2445 60.2624 21.9463 60.5981L26.1572 62.6018C26.8692 62.9374 27.6727 62.378 27.6117 61.5948L27.2048 56.9466C27.1336 56.1736 26.2487 55.7566 25.6079 56.2041L25.0587 56.5906C17.9592 45.6159 19.6781 31.2846 29.2797 22.3136C38.4847 13.7087 52.6735 12.6509 63.0177 19.8216C63.7093 20.2997 64.6654 20.1268 65.1434 19.4351C65.6215 18.7435 65.4486 17.7874 64.7569 17.3094Z" fill="#9747FF"/>
</g>
<path d="M1.19209e-07 91.368C1.19209e-07 90.2587 0.24 89.272 0.72 88.408C1.2 87.5333 1.86667 86.856 2.72 86.376C3.584 85.8853 4.56 85.64 5.648 85.64C6.98133 85.64 8.12267 85.992 9.072 86.696C10.0213 87.4 10.656 88.36 10.976 89.576H7.968C7.744 89.1067 7.424 88.7493 7.008 88.504C6.60267 88.2587 6.13867 88.136 5.616 88.136C4.77333 88.136 4.09067 88.4293 3.568 89.016C3.04533 89.6027 2.784 90.3867 2.784 91.368C2.784 92.3493 3.04533 93.1333 3.568 93.72C4.09067 94.3067 4.77333 94.6 5.616 94.6C6.13867 94.6 6.60267 94.4773 7.008 94.232C7.424 93.9867 7.744 93.6293 7.968 93.16H10.976C10.656 94.376 10.0213 95.336 9.072 96.04C8.12267 96.7333 6.98133 97.08 5.648 97.08C4.56 97.08 3.584 96.84 2.72 96.36C1.86667 95.8693 1.2 95.192 0.72 94.328C0.24 93.464 1.19209e-07 92.4773 1.19209e-07 91.368ZM16.7155 97.128C15.8408 97.128 15.0515 96.9413 14.3475 96.568C13.6542 96.1947 13.1048 95.6613 12.6995 94.968C12.3048 94.2747 12.1075 93.464 12.1075 92.536C12.1075 91.6187 12.3102 90.8133 12.7155 90.12C13.1208 89.416 13.6755 88.8773 14.3795 88.504C15.0835 88.1307 15.8728 87.944 16.7475 87.944C17.6222 87.944 18.4115 88.1307 19.1155 88.504C19.8195 88.8773 20.3742 89.416 20.7795 90.12C21.1848 90.8133 21.3875 91.6187 21.3875 92.536C21.3875 93.4533 21.1795 94.264 20.7635 94.968C20.3582 95.6613 19.7982 96.1947 19.0835 96.568C18.3795 96.9413 17.5902 97.128 16.7155 97.128ZM16.7155 94.76C17.2382 94.76 17.6808 94.568 18.0435 94.184C18.4168 93.8 18.6035 93.2507 18.6035 92.536C18.6035 91.8213 18.4222 91.272 18.0595 90.888C17.7075 90.504 17.2702 90.312 16.7475 90.312C16.2142 90.312 15.7715 90.504 15.4195 90.888C15.0675 91.2613 14.8915 91.8107 14.8915 92.536C14.8915 93.2507 15.0622 93.8 15.4035 94.184C15.7555 94.568 16.1928 94.76 16.7155 94.76ZM28.279 87.976C29.3243 87.976 30.1563 88.3173 30.775 89C31.4043 89.672 31.719 90.6 31.719 91.784V97H28.999V92.152C28.999 91.5547 28.8443 91.0907 28.535 90.76C28.2257 90.4293 27.8097 90.264 27.287 90.264C26.7643 90.264 26.3483 90.4293 26.039 90.76C25.7297 91.0907 25.575 91.5547 25.575 92.152V97H22.839V88.072H25.575V89.256C25.8523 88.8613 26.2257 88.552 26.695 88.328C27.1643 88.0933 27.6923 87.976 28.279 87.976ZM38.5963 94.68V97H37.2043C36.2123 97 35.4389 96.76 34.8843 96.28C34.3296 95.7893 34.0523 94.9947 34.0523 93.896V90.344H32.9643V88.072H34.0523V85.896H36.7883V88.072H38.5803V90.344H36.7883V93.928C36.7883 94.1947 36.8523 94.3867 36.9803 94.504C37.1083 94.6213 37.3216 94.68 37.6203 94.68H38.5963ZM41.4963 87.144C41.0163 87.144 40.6216 87.0053 40.3123 86.728C40.0136 86.44 39.8643 86.088 39.8643 85.672C39.8643 85.2453 40.0136 84.8933 40.3123 84.616C40.6216 84.328 41.0163 84.184 41.4963 84.184C41.9656 84.184 42.3496 84.328 42.6483 84.616C42.9576 84.8933 43.1123 85.2453 43.1123 85.672C43.1123 86.088 42.9576 86.44 42.6483 86.728C42.3496 87.0053 41.9656 87.144 41.4963 87.144ZM42.8563 88.072V97H40.1203V88.072H42.8563ZM50.279 87.976C51.3243 87.976 52.1563 88.3173 52.775 89C53.4043 89.672 53.719 90.6 53.719 91.784V97H50.999V92.152C50.999 91.5547 50.8443 91.0907 50.535 90.76C50.2257 90.4293 49.8097 90.264 49.287 90.264C48.7643 90.264 48.3483 90.4293 48.039 90.76C47.7297 91.0907 47.575 91.5547 47.575 92.152V97H44.839V88.072H47.575V89.256C47.8523 88.8613 48.2257 88.552 48.695 88.328C49.1643 88.0933 49.6923 87.976 50.279 87.976ZM64.4363 88.072V97H61.7003V95.784C61.4229 96.1787 61.0443 96.4987 60.5643 96.744C60.0949 96.9787 59.5723 97.096 58.9963 97.096C58.3136 97.096 57.7109 96.9467 57.1883 96.648C56.6656 96.3387 56.2603 95.896 55.9723 95.32C55.6843 94.744 55.5403 94.0667 55.5403 93.288V88.072H58.2603V92.92C58.2603 93.5173 58.4149 93.9813 58.7243 94.312C59.0336 94.6427 59.4496 94.808 59.9723 94.808C60.5056 94.808 60.9269 94.6427 61.2363 94.312C61.5456 93.9813 61.7003 93.5173 61.7003 92.92V88.072H64.4363ZM65.8575 92.52C65.8575 91.6027 66.0282 90.7973 66.3695 90.104C66.7215 89.4107 67.1962 88.8773 67.7935 88.504C68.3908 88.1307 69.0575 87.944 69.7935 87.944C70.4228 87.944 70.9722 88.072 71.4415 88.328C71.9215 88.584 72.2895 88.92 72.5455 89.336V88.072H75.2815V97H72.5455V95.736C72.2788 96.152 71.9055 96.488 71.4255 96.744C70.9562 97 70.4068 97.128 69.7775 97.128C69.0522 97.128 68.3908 96.9413 67.7935 96.568C67.1962 96.184 66.7215 95.6453 66.3695 94.952C66.0282 94.248 65.8575 93.4373 65.8575 92.52ZM72.5455 92.536C72.5455 91.8533 72.3535 91.3147 71.9695 90.92C71.5962 90.5253 71.1375 90.328 70.5935 90.328C70.0495 90.328 69.5855 90.5253 69.2015 90.92C68.8282 91.304 68.6415 91.8373 68.6415 92.52C68.6415 93.2027 68.8282 93.7467 69.2015 94.152C69.5855 94.5467 70.0495 94.744 70.5935 94.744C71.1375 94.744 71.5962 94.5467 71.9695 94.152C72.3535 93.7573 72.5455 93.2187 72.5455 92.536ZM79.9969 85.16V97H77.2609V85.16H79.9969ZM84.7156 85.16V97H81.9796V85.16H84.7156ZM95.8184 88.072L90.2184 101.24H87.2744L89.3224 96.696L85.6904 88.072H88.7464L90.8104 93.656L92.8584 88.072H95.8184ZM16.6609 104.16V116H13.9249V104.16H16.6609ZM27.0597 111.392C27.0597 111.648 27.0437 111.915 27.0117 112.192H20.8197C20.8624 112.747 21.0384 113.173 21.3477 113.472C21.6677 113.76 22.057 113.904 22.5157 113.904C23.1984 113.904 23.673 113.616 23.9397 113.04H26.8517C26.7024 113.627 26.4304 114.155 26.0357 114.624C25.6517 115.093 25.1664 115.461 24.5797 115.728C23.993 115.995 23.337 116.128 22.6117 116.128C21.737 116.128 20.9584 115.941 20.2757 115.568C19.593 115.195 19.0597 114.661 18.6757 113.968C18.2917 113.275 18.0997 112.464 18.0997 111.536C18.0997 110.608 18.2864 109.797 18.6597 109.104C19.0437 108.411 19.577 107.877 20.2597 107.504C20.9424 107.131 21.7264 106.944 22.6117 106.944C23.4757 106.944 24.2437 107.125 24.9157 107.488C25.5877 107.851 26.1104 108.368 26.4837 109.04C26.8677 109.712 27.0597 110.496 27.0597 111.392ZM24.2597 110.672C24.2597 110.203 24.0997 109.829 23.7797 109.552C23.4597 109.275 23.0597 109.136 22.5797 109.136C22.121 109.136 21.7317 109.269 21.4117 109.536C21.1024 109.803 20.9104 110.181 20.8357 110.672H24.2597ZM27.9591 111.52C27.9591 110.603 28.1297 109.797 28.4711 109.104C28.8231 108.411 29.2977 107.877 29.8951 107.504C30.4924 107.131 31.1591 106.944 31.8951 106.944C32.5244 106.944 33.0737 107.072 33.5431 107.328C34.0231 107.584 34.3911 107.92 34.6471 108.336V107.072H37.3831V116H34.6471V114.736C34.3804 115.152 34.0071 115.488 33.5271 115.744C33.0577 116 32.5084 116.128 31.8791 116.128C31.1537 116.128 30.4924 115.941 29.8951 115.568C29.2977 115.184 28.8231 114.645 28.4711 113.952C28.1297 113.248 27.9591 112.437 27.9591 111.52ZM34.6471 111.536C34.6471 110.853 34.4551 110.315 34.0711 109.92C33.6977 109.525 33.2391 109.328 32.6951 109.328C32.1511 109.328 31.6871 109.525 31.3031 109.92C30.9297 110.304 30.7431 110.837 30.7431 111.52C30.7431 112.203 30.9297 112.747 31.3031 113.152C31.6871 113.547 32.1511 113.744 32.6951 113.744C33.2391 113.744 33.6977 113.547 34.0711 113.152C34.4551 112.757 34.6471 112.219 34.6471 111.536ZM42.0984 108.56C42.4184 108.069 42.8184 107.685 43.2984 107.408C43.7784 107.12 44.3118 106.976 44.8984 106.976V109.872H44.1464C43.4638 109.872 42.9518 110.021 42.6104 110.32C42.2691 110.608 42.0984 111.12 42.0984 111.856V116H39.3624V107.072H42.0984V108.56ZM51.6462 106.976C52.6915 106.976 53.5235 107.317 54.1422 108C54.7715 108.672 55.0862 109.6 55.0862 110.784V116H52.3662V111.152C52.3662 110.555 52.2115 110.091 51.9022 109.76C51.5929 109.429 51.1769 109.264 50.6542 109.264C50.1315 109.264 49.7155 109.429 49.4062 109.76C49.0969 110.091 48.9422 110.555 48.9422 111.152V116H46.2062V107.072H48.9422V108.256C49.2195 107.861 49.5929 107.552 50.0622 107.328C50.5315 107.093 51.0595 106.976 51.6462 106.976ZM58.3634 106.144C57.8834 106.144 57.4888 106.005 57.1794 105.728C56.8808 105.44 56.7314 105.088 56.7314 104.672C56.7314 104.245 56.8808 103.893 57.1794 103.616C57.4888 103.328 57.8834 103.184 58.3634 103.184C58.8328 103.184 59.2168 103.328 59.5154 103.616C59.8248 103.893 59.9794 104.245 59.9794 104.672C59.9794 105.088 59.8248 105.44 59.5154 105.728C59.2168 106.005 58.8328 106.144 58.3634 106.144ZM59.7234 107.072V116H56.9874V107.072H59.7234ZM67.1462 106.976C68.1915 106.976 69.0235 107.317 69.6422 108C70.2715 108.672 70.5862 109.6 70.5862 110.784V116H67.8662V111.152C67.8662 110.555 67.7115 110.091 67.4022 109.76C67.0929 109.429 66.6769 109.264 66.1542 109.264C65.6315 109.264 65.2155 109.429 64.9062 109.76C64.5969 110.091 64.4422 110.555 64.4422 111.152V116H61.7062V107.072H64.4422V108.256C64.7195 107.861 65.0929 107.552 65.5622 107.328C66.0315 107.093 66.5595 106.976 67.1462 106.976ZM75.8794 106.944C76.5088 106.944 77.0581 107.072 77.5274 107.328C78.0074 107.584 78.3754 107.92 78.6314 108.336V107.072H81.3674V115.984C81.3674 116.805 81.2021 117.547 80.8714 118.208C80.5514 118.88 80.0554 119.413 79.3834 119.808C78.7221 120.203 77.8954 120.4 76.9034 120.4C75.5808 120.4 74.5088 120.085 73.6874 119.456C72.8661 118.837 72.3968 117.995 72.2794 116.928H74.9834C75.0688 117.269 75.2714 117.536 75.5914 117.728C75.9114 117.931 76.3061 118.032 76.7754 118.032C77.3408 118.032 77.7888 117.867 78.1194 117.536C78.4608 117.216 78.6314 116.699 78.6314 115.984V114.72C78.3648 115.136 77.9968 115.477 77.5274 115.744C77.0581 116 76.5088 116.128 75.8794 116.128C75.1434 116.128 74.4768 115.941 73.8794 115.568C73.2821 115.184 72.8074 114.645 72.4554 113.952C72.1141 113.248 71.9434 112.437 71.9434 111.52C71.9434 110.603 72.1141 109.797 72.4554 109.104C72.8074 108.411 73.2821 107.877 73.8794 107.504C74.4768 107.131 75.1434 106.944 75.8794 106.944ZM78.6314 111.536C78.6314 110.853 78.4394 110.315 78.0554 109.92C77.6821 109.525 77.2234 109.328 76.6794 109.328C76.1354 109.328 75.6714 109.525 75.2874 109.92C74.9141 110.304 74.7274 110.837 74.7274 111.52C74.7274 112.203 74.9141 112.747 75.2874 113.152C75.6714 113.547 76.1354 113.744 76.6794 113.744C77.2234 113.744 77.6821 113.547 78.0554 113.152C78.4394 112.757 78.6314 112.219 78.6314 111.536Z" fill="#9747FF"/>
<defs>
<clipPath id="clip0_105102_3392">
<rect width="60" height="59.939" fill="white" transform="translate(17.6439 12.0305)"/>
</clipPath>
</defs>
</svg>
