<svg width="88" height="101" viewBox="0 0 88 101" fill="none" xmlns="http://www.w3.org/2000/svg">
<path d="M17.5116 12.0106C17.5116 12.2432 17.501 12.4018 17.5116 12.5603C17.9137 16.9585 18.3158 21.3567 18.7073 25.7655C19.2575 32.0033 19.7972 38.2411 20.3474 44.4684C20.9717 51.4674 21.6066 58.4559 22.2098 65.4549C22.2521 65.9624 22.432 66.1844 22.9081 66.3113C29.6803 68.1721 36.4313 70.0434 43.2035 71.8936C43.6585 72.0205 44.2087 72.0416 44.6637 71.9148C51.457 70.054 58.2398 68.1615 65.0331 66.2902C65.5516 66.1421 65.7315 65.9095 65.7738 65.3809C65.9854 62.7378 66.2394 60.0841 66.4722 57.4409C66.8637 53.0639 67.2446 48.6868 67.6362 44.3098C68.0912 39.1715 68.5567 34.0438 69.0117 28.9055C69.3504 25.0783 69.7101 21.2616 70.0487 17.4343C70.2075 15.637 70.345 13.8396 70.4932 12H17.5116V12.0106ZM60.2714 27.2774C59.9222 31.1469 59.573 35.0271 59.2239 38.8966C58.8218 43.3477 58.4197 47.7987 58.0176 52.2392C57.9012 53.5185 57.7319 54.7978 57.7001 56.0876C57.679 56.7748 57.3827 56.9546 56.8113 57.1132C52.7268 58.2127 48.6529 59.344 44.5791 60.4647C44.3992 60.5175 44.2299 60.581 44.05 60.6338C43.9865 60.6021 43.923 60.581 43.8489 60.5492C39.4894 59.3651 35.1298 58.1704 30.7702 56.9651C30.5903 56.9123 30.3575 56.6268 30.3364 56.4259C30.0295 53.1273 29.7544 49.8287 29.4581 46.4666H36.1139C36.2303 47.7882 36.3572 49.1309 36.463 50.4842C36.5583 51.7317 36.5477 51.7317 37.7222 52.0489C39.828 52.6092 41.9443 53.159 44.05 53.7088L44.0288 53.6559C46.3356 53.0427 48.6424 52.4401 50.9491 51.7846C51.1608 51.7212 51.4041 51.3828 51.4359 51.1502C51.5734 50.1353 51.6475 49.1097 51.7322 48.0948C51.8697 46.456 52.0073 44.8173 52.1554 43.1045H44.0288L44.05 43.0622C43.9971 43.0622 43.9336 43.0622 43.8807 43.0622H29.1512C28.9502 40.8737 28.7597 38.7063 28.5587 36.4755H43.8913C43.9442 36.4755 44.0077 36.4755 44.0606 36.4755L44.0394 36.4332H52.748C52.949 34.1601 53.1501 31.9399 53.3511 29.6773H44.0288L44.05 29.635C43.9971 29.635 43.9336 29.635 43.8807 29.635C38.664 29.6456 33.4473 29.6456 28.2306 29.6562C28.1566 29.6562 28.0825 29.6245 27.9449 29.5822C27.7545 27.4254 27.5534 25.2686 27.3629 23.0483H43.8807C43.9336 23.0483 43.9971 23.0483 44.05 23.0483L44.0288 23.006H60.6206C60.5042 24.4862 60.3878 25.8818 60.2714 27.2774Z" fill="white"/>
<path d="M28.5905 91.368C28.5905 90.2587 28.8305 89.272 29.3105 88.408C29.7905 87.5333 30.4572 86.856 31.3105 86.376C32.1745 85.8853 33.1505 85.64 34.2385 85.64C35.5718 85.64 36.7132 85.992 37.6625 86.696C38.6118 87.4 39.2465 88.36 39.5665 89.576H36.5585C36.3345 89.1067 36.0145 88.7493 35.5985 88.504C35.1932 88.2587 34.7292 88.136 34.2065 88.136C33.3638 88.136 32.6812 88.4293 32.1585 89.016C31.6358 89.6027 31.3745 90.3867 31.3745 91.368C31.3745 92.3493 31.6358 93.1333 32.1585 93.72C32.6812 94.3067 33.3638 94.6 34.2065 94.6C34.7292 94.6 35.1932 94.4773 35.5985 94.232C36.0145 93.9867 36.3345 93.6293 36.5585 93.16H39.5665C39.2465 94.376 38.6118 95.336 37.6625 96.04C36.7132 96.7333 35.5718 97.08 34.2385 97.08C33.1505 97.08 32.1745 96.84 31.3105 96.36C30.4572 95.8693 29.7905 95.192 29.3105 94.328C28.8305 93.464 28.5905 92.4773 28.5905 91.368ZM45.306 97.112C44.4847 97.112 43.7487 96.9787 43.098 96.712C42.4473 96.4453 41.9247 96.0507 41.53 95.528C41.146 95.0053 40.9433 94.376 40.922 93.64H43.834C43.8767 94.056 44.0207 94.376 44.266 94.6C44.5113 94.8133 44.8313 94.92 45.226 94.92C45.6313 94.92 45.9513 94.8293 46.186 94.648C46.4207 94.456 46.538 94.1947 46.538 93.864C46.538 93.5867 46.442 93.3573 46.25 93.176C46.0687 92.9947 45.8393 92.8453 45.562 92.728C45.2953 92.6107 44.9113 92.4773 44.41 92.328C43.6847 92.104 43.0927 91.88 42.634 91.656C42.1753 91.432 41.7807 91.1013 41.45 90.664C41.1193 90.2267 40.954 89.656 40.954 88.952C40.954 87.9067 41.3327 87.0907 42.09 86.504C42.8473 85.9067 43.834 85.608 45.05 85.608C46.2873 85.608 47.2847 85.9067 48.042 86.504C48.7993 87.0907 49.2047 87.912 49.258 88.968H46.298C46.2767 88.6053 46.1433 88.3227 45.898 88.12C45.6527 87.9067 45.338 87.8 44.954 87.8C44.6233 87.8 44.3567 87.8907 44.154 88.072C43.9513 88.2427 43.85 88.4933 43.85 88.824C43.85 89.1867 44.0207 89.4693 44.362 89.672C44.7033 89.8747 45.2367 90.0933 45.962 90.328C46.6873 90.5733 47.274 90.808 47.722 91.032C48.1807 91.256 48.5753 91.5813 48.906 92.008C49.2367 92.4347 49.402 92.984 49.402 93.656C49.402 94.296 49.2367 94.8773 48.906 95.4C48.586 95.9227 48.1167 96.3387 47.498 96.648C46.8793 96.9573 46.1487 97.112 45.306 97.112ZM55.1498 97.112C54.3284 97.112 53.5924 96.9787 52.9418 96.712C52.2911 96.4453 51.7684 96.0507 51.3738 95.528C50.9898 95.0053 50.7871 94.376 50.7658 93.64H53.6778C53.7204 94.056 53.8644 94.376 54.1098 94.6C54.3551 94.8133 54.6751 94.92 55.0698 94.92C55.4751 94.92 55.7951 94.8293 56.0298 94.648C56.2644 94.456 56.3818 94.1947 56.3818 93.864C56.3818 93.5867 56.2858 93.3573 56.0938 93.176C55.9124 92.9947 55.6831 92.8453 55.4058 92.728C55.1391 92.6107 54.7551 92.4773 54.2538 92.328C53.5284 92.104 52.9364 91.88 52.4778 91.656C52.0191 91.432 51.6244 91.1013 51.2938 90.664C50.9631 90.2267 50.7978 89.656 50.7978 88.952C50.7978 87.9067 51.1764 87.0907 51.9338 86.504C52.6911 85.9067 53.6778 85.608 54.8938 85.608C56.1311 85.608 57.1284 85.9067 57.8858 86.504C58.6431 87.0907 59.0484 87.912 59.1018 88.968H56.1418C56.1204 88.6053 55.9871 88.3227 55.7418 88.12C55.4964 87.9067 55.1818 87.8 54.7977 87.8C54.4671 87.8 54.2004 87.8907 53.9978 88.072C53.7951 88.2427 53.6938 88.4933 53.6938 88.824C53.6938 89.1867 53.8644 89.4693 54.2057 89.672C54.5471 89.8747 55.0804 90.0933 55.8058 90.328C56.5311 90.5733 57.1178 90.808 57.5658 91.032C58.0244 91.256 58.4191 91.5813 58.7498 92.008C59.0804 92.4347 59.2458 92.984 59.2458 93.656C59.2458 94.296 59.0804 94.8773 58.7498 95.4C58.4298 95.9227 57.9604 96.3387 57.3418 96.648C56.7231 96.9573 55.9924 97.112 55.1498 97.112Z" fill="white"/>
</svg>
