<svg width="88" height="101" viewBox="0 0 88 101" fill="none" xmlns="http://www.w3.org/2000/svg">
<path d="M23.6492 51.1719L29.5806 13.1632C29.7851 11.8679 31.5236 11.5611 32.1372 12.7201L38.5117 24.6511L23.6492 51.1719ZM65.8166 60.4099L60.1579 25.401C59.9875 24.3102 58.624 23.867 57.8399 24.6511L22.1833 60.4099L41.9206 71.4887C43.1478 72.1704 44.6818 72.1704 45.909 71.4887L65.8166 60.4099ZM49.795 29.8666L45.2272 21.174C44.7159 20.1855 43.3182 20.1855 42.8069 21.174L22.7288 56.967L49.795 29.8666Z" fill="white"/>
<path d="M16.9681 85.768V87.96H12.3921V90.328H15.8161V92.456H12.3921V97H9.65606V85.768H16.9681ZM19.7821 87.144C19.3021 87.144 18.9074 87.0053 18.5981 86.728C18.2994 86.44 18.1501 86.088 18.1501 85.672C18.1501 85.2453 18.2994 84.8933 18.5981 84.616C18.9074 84.328 19.3021 84.184 19.7821 84.184C20.2514 84.184 20.6354 84.328 20.9341 84.616C21.2434 84.8933 21.3981 85.2453 21.3981 85.672C21.3981 86.088 21.2434 86.44 20.9341 86.728C20.6354 87.0053 20.2514 87.144 19.7821 87.144ZM21.1421 88.072V97H18.4061V88.072H21.1421ZM25.8608 89.56C26.1808 89.0693 26.5808 88.6853 27.0608 88.408C27.5408 88.12 28.0741 87.976 28.6608 87.976V90.872H27.9088C27.2261 90.872 26.7141 91.0213 26.3728 91.32C26.0315 91.608 25.8608 92.12 25.8608 92.856V97H23.1248V88.072H25.8608V89.56ZM38.3846 92.392C38.3846 92.648 38.3686 92.9147 38.3366 93.192H32.1446C32.1872 93.7467 32.3632 94.1733 32.6726 94.472C32.9926 94.76 33.3819 94.904 33.8406 94.904C34.5232 94.904 34.9979 94.616 35.2646 94.04H38.1766C38.0272 94.6267 37.7552 95.1547 37.3606 95.624C36.9766 96.0933 36.4912 96.4613 35.9046 96.728C35.3179 96.9947 34.6619 97.128 33.9366 97.128C33.0619 97.128 32.2832 96.9413 31.6006 96.568C30.9179 96.1947 30.3846 95.6613 30.0006 94.968C29.6166 94.2747 29.4246 93.464 29.4246 92.536C29.4246 91.608 29.6112 90.7973 29.9846 90.104C30.3686 89.4107 30.9019 88.8773 31.5846 88.504C32.2672 88.1307 33.0512 87.944 33.9366 87.944C34.8006 87.944 35.5686 88.1253 36.2406 88.488C36.9126 88.8507 37.4352 89.368 37.8086 90.04C38.1926 90.712 38.3846 91.496 38.3846 92.392ZM35.5846 91.672C35.5846 91.2027 35.4246 90.8293 35.1046 90.552C34.7846 90.2747 34.3846 90.136 33.9046 90.136C33.4459 90.136 33.0566 90.2693 32.7366 90.536C32.4272 90.8027 32.2352 91.1813 32.1606 91.672H35.5846ZM42.5639 89.336C42.8199 88.92 43.1879 88.584 43.6679 88.328C44.1479 88.072 44.6973 87.944 45.3159 87.944C46.0519 87.944 46.7186 88.1307 47.3159 88.504C47.9133 88.8773 48.3826 89.4107 48.7239 90.104C49.0759 90.7973 49.2519 91.6027 49.2519 92.52C49.2519 93.4373 49.0759 94.248 48.7239 94.952C48.3826 95.6453 47.9133 96.184 47.3159 96.568C46.7186 96.9413 46.0519 97.128 45.3159 97.128C44.6866 97.128 44.1373 97.0053 43.6679 96.76C43.1986 96.504 42.8306 96.168 42.5639 95.752V97H39.8279V85.16H42.5639V89.336ZM46.4679 92.52C46.4679 91.8373 46.2759 91.304 45.8919 90.92C45.5186 90.5253 45.0546 90.328 44.4999 90.328C43.9559 90.328 43.4919 90.5253 43.1079 90.92C42.7346 91.3147 42.5479 91.8533 42.5479 92.536C42.5479 93.2187 42.7346 93.7573 43.1079 94.152C43.4919 94.5467 43.9559 94.744 44.4999 94.744C45.0439 94.744 45.5079 94.5467 45.8919 94.152C46.2759 93.7467 46.4679 93.2027 46.4679 92.52ZM50.1433 92.52C50.1433 91.6027 50.314 90.7973 50.6553 90.104C51.0073 89.4107 51.482 88.8773 52.0793 88.504C52.6766 88.1307 53.3433 87.944 54.0793 87.944C54.7086 87.944 55.258 88.072 55.7273 88.328C56.2073 88.584 56.5753 88.92 56.8313 89.336V88.072H59.5673V97H56.8313V95.736C56.5646 96.152 56.1913 96.488 55.7113 96.744C55.242 97 54.6926 97.128 54.0633 97.128C53.338 97.128 52.6766 96.9413 52.0793 96.568C51.482 96.184 51.0073 95.6453 50.6553 94.952C50.314 94.248 50.1433 93.4373 50.1433 92.52ZM56.8313 92.536C56.8313 91.8533 56.6393 91.3147 56.2553 90.92C55.882 90.5253 55.4233 90.328 54.8793 90.328C54.3353 90.328 53.8713 90.5253 53.4873 90.92C53.114 91.304 52.9273 91.8373 52.9273 92.52C52.9273 93.2027 53.114 93.7467 53.4873 94.152C53.8713 94.5467 54.3353 94.744 54.8793 94.744C55.4233 94.744 55.882 94.5467 56.2553 94.152C56.6393 93.7573 56.8313 93.2187 56.8313 92.536ZM65.1787 97.128C64.4 97.128 63.7067 96.9947 63.0987 96.728C62.4907 96.4613 62.0107 96.0987 61.6587 95.64C61.3067 95.1707 61.1094 94.648 61.0667 94.072H63.7707C63.8027 94.3813 63.9467 94.632 64.2027 94.824C64.4587 95.016 64.7734 95.112 65.1467 95.112C65.488 95.112 65.7494 95.048 65.9307 94.92C66.1227 94.7813 66.2187 94.6053 66.2187 94.392C66.2187 94.136 66.0854 93.9493 65.8187 93.832C65.552 93.704 65.12 93.5653 64.5227 93.416C63.8827 93.2667 63.3494 93.112 62.9227 92.952C62.496 92.7813 62.128 92.52 61.8187 92.168C61.5094 91.8053 61.3547 91.32 61.3547 90.712C61.3547 90.2 61.4934 89.736 61.7707 89.32C62.0587 88.8933 62.4747 88.5573 63.0187 88.312C63.5734 88.0667 64.2294 87.944 64.9867 87.944C66.1067 87.944 66.9867 88.2213 67.6267 88.776C68.2774 89.3307 68.6507 90.0667 68.7467 90.984H66.2187C66.176 90.6747 66.0374 90.4293 65.8027 90.248C65.5787 90.0667 65.28 89.976 64.9067 89.976C64.5867 89.976 64.3414 90.04 64.1707 90.168C64 90.2853 63.9147 90.4507 63.9147 90.664C63.9147 90.92 64.048 91.112 64.3147 91.24C64.592 91.368 65.0187 91.496 65.5947 91.624C66.256 91.7947 66.7947 91.9653 67.2107 92.136C67.6267 92.296 67.9894 92.5627 68.2987 92.936C68.6187 93.2987 68.784 93.7893 68.7947 94.408C68.7947 94.9307 68.6454 95.4 68.3467 95.816C68.0587 96.2213 67.6374 96.5413 67.0827 96.776C66.5387 97.0107 65.904 97.128 65.1787 97.128ZM78.8846 92.392C78.8846 92.648 78.8686 92.9147 78.8366 93.192H72.6446C72.6872 93.7467 72.8632 94.1733 73.1726 94.472C73.4926 94.76 73.8819 94.904 74.3406 94.904C75.0232 94.904 75.4979 94.616 75.7646 94.04H78.6766C78.5272 94.6267 78.2552 95.1547 77.8606 95.624C77.4766 96.0933 76.9912 96.4613 76.4046 96.728C75.8179 96.9947 75.1619 97.128 74.4366 97.128C73.5619 97.128 72.7832 96.9413 72.1006 96.568C71.4179 96.1947 70.8846 95.6613 70.5006 94.968C70.1166 94.2747 69.9246 93.464 69.9246 92.536C69.9246 91.608 70.1112 90.7973 70.4846 90.104C70.8686 89.4107 71.4019 88.8773 72.0846 88.504C72.7672 88.1307 73.5512 87.944 74.4366 87.944C75.3006 87.944 76.0686 88.1253 76.7406 88.488C77.4126 88.8507 77.9352 89.368 78.3086 90.04C78.6926 90.712 78.8846 91.496 78.8846 92.392ZM76.0846 91.672C76.0846 91.2027 75.9246 90.8293 75.6046 90.552C75.2846 90.2747 74.8846 90.136 74.4046 90.136C73.9459 90.136 73.5566 90.2693 73.2366 90.536C72.9272 90.8027 72.7352 91.1813 72.6606 91.672H76.0846Z" fill="white"/>
</svg>
