<svg width="88" height="101" viewBox="0 0 88 101" fill="none" xmlns="http://www.w3.org/2000/svg">
<path d="M72.8823 39.3573L46.6471 13.1256C45.1461 11.6248 42.6662 11.6248 41.1651 13.1256L35.7484 18.5416L42.6662 25.4584C44.2977 24.9364 46.125 25.2626 47.365 26.5677C48.6702 27.8728 48.9965 29.6998 48.4744 31.3312L55.1311 37.987C56.7627 37.4649 58.59 37.7912 59.8952 39.0963C61.7225 40.8581 61.7225 43.7945 59.8952 45.6215C58.0679 47.4486 55.1964 47.4486 53.3691 45.6215C51.9986 44.2512 51.6722 42.2936 52.3901 40.5971L46.1903 34.398V50.7113C46.6471 50.907 47.0387 51.2333 47.4302 51.5595C49.2576 53.3214 49.2576 56.2578 47.4302 58.0848C45.6029 59.8467 42.7314 59.8467 40.9041 58.0848C39.0768 56.2578 39.0768 53.3866 40.9041 51.5595C41.3609 51.1028 41.883 50.7765 42.4051 50.5808V34.0718C41.883 33.876 41.3609 33.4845 40.9041 33.093C39.5336 31.7227 39.2073 29.7651 39.9252 28.0685L33.0727 21.2822L15.1258 39.2268C13.6247 40.7276 13.6247 43.2072 15.1258 44.708L41.2957 70.8744C42.7967 72.3752 45.2766 72.3752 46.7776 70.8744L72.817 44.8385C74.3833 43.2724 74.3833 40.8581 72.8823 39.3573Z" fill="white"/>
<path d="M40.7449 89.32C40.5422 88.9467 40.2489 88.664 39.8649 88.472C39.4915 88.2693 39.0489 88.168 38.5369 88.168C37.6515 88.168 36.9422 88.4613 36.4089 89.048C35.8755 89.624 35.6089 90.3973 35.6089 91.368C35.6089 92.4027 35.8862 93.2133 36.4409 93.8C37.0062 94.376 37.7795 94.664 38.7609 94.664C39.4329 94.664 39.9982 94.4933 40.4569 94.152C40.9262 93.8107 41.2675 93.32 41.4809 92.68H38.0089V90.664H43.9609V93.208C43.7582 93.8907 43.4115 94.5253 42.9209 95.112C42.4409 95.6987 41.8275 96.1733 41.0809 96.536C40.3342 96.8987 39.4915 97.08 38.5529 97.08C37.4435 97.08 36.4515 96.84 35.5769 96.36C34.7129 95.8693 34.0355 95.192 33.5449 94.328C33.0649 93.464 32.8249 92.4773 32.8249 91.368C32.8249 90.2587 33.0649 89.272 33.5449 88.408C34.0355 87.5333 34.7129 86.856 35.5769 86.376C36.4409 85.8853 37.4275 85.64 38.5369 85.64C39.8809 85.64 41.0115 85.9653 41.9289 86.616C42.8569 87.2667 43.4702 88.168 43.7689 89.32H40.7449ZM46.8524 87.144C46.3724 87.144 45.9777 87.0053 45.6684 86.728C45.3697 86.44 45.2204 86.088 45.2204 85.672C45.2204 85.2453 45.3697 84.8933 45.6684 84.616C45.9777 84.328 46.3724 84.184 46.8524 84.184C47.3217 84.184 47.7057 84.328 48.0044 84.616C48.3137 84.8933 48.4684 85.2453 48.4684 85.672C48.4684 86.088 48.3137 86.44 48.0044 86.728C47.7057 87.0053 47.3217 87.144 46.8524 87.144ZM48.2124 88.072V97H45.4764V88.072H48.2124ZM55.1711 94.68V97H53.7791C52.7871 97 52.0138 96.76 51.4591 96.28C50.9045 95.7893 50.6271 94.9947 50.6271 93.896V90.344H49.5391V88.072H50.6271V85.896H53.3631V88.072H55.1551V90.344H53.3631V93.928C53.3631 94.1947 53.4271 94.3867 53.5551 94.504C53.6831 94.6213 53.8965 94.68 54.1951 94.68H55.1711Z" fill="white"/>
</svg>
