<svg width="88" height="101" viewBox="0 0 88 101" fill="none" xmlns="http://www.w3.org/2000/svg">
<path d="M44 60.534L57.86 56.766L59.729 36.432H35.078L34.466 29.67H60.344L61.025 23.037H26.975L28.883 43.071H52.343L51.56 51.669L44 53.67L36.44 51.669L35.966 46.137H29.156L30.143 56.769L44 60.534ZM17 12H71L66.131 66L44 72L21.869 66L17 12Z" fill="white"/>
<path d="M32.9856 85.768V97H30.2496V92.376H25.9936V97H23.2576V85.768H25.9936V90.168H30.2496V85.768H32.9856ZM43.0408 85.768V87.96H40.0648V97H37.3288V87.96H34.3528V85.768H43.0408ZM57.1339 85.768V97H54.3979V90.264L51.8859 97H49.6779L47.1499 90.248V97H44.4139V85.768H47.6459L50.7979 93.544L53.9179 85.768H57.1339ZM61.8374 94.888H65.4214V97H59.1014V85.768H61.8374V94.888Z" fill="white"/>
</svg>
