<svg width="89" height="102" viewBox="0 0 89 102" fill="none" xmlns="http://www.w3.org/2000/svg">
<path d="M14.3027 12C34.3163 12 54.2892 12 74.3027 12C74.3027 32.0135 74.3027 52.027 74.3027 72C54.3298 72 34.3163 72 14.3027 72C14.3027 51.946 14.3027 31.973 14.3027 12ZM67.9827 43.7623C66.7673 41.5746 65.1063 40.0756 62.716 39.549C61.0144 39.1438 59.3129 39.1438 57.6113 39.5084C52.1015 40.6428 49.7518 47.287 53.3169 51.7029C54.5728 53.2424 56.2339 54.1742 57.9759 54.9845C59.5154 55.7137 61.0955 56.4024 62.635 57.1722C63.6883 57.6988 64.1339 58.6712 64.0124 59.846C63.8909 61.0209 63.0806 61.6691 62.0678 62.0338C59.799 62.844 57.1657 62.1148 55.6262 60.2107C55.3021 59.8055 54.978 59.3599 54.6539 58.9142C53.1144 59.8055 51.6154 60.6563 50.1164 61.5476C51.0482 63.3707 52.3446 64.8292 54.1272 65.8015C57.1657 67.4625 60.3662 67.7056 63.6478 66.8953C65.795 66.3687 67.6181 65.2748 68.7524 63.2897C70.8591 59.5219 69.6437 54.8224 65.9165 52.5132C64.2555 51.5003 62.3919 50.8116 60.6498 49.9203C59.799 49.4747 58.9077 49.0695 58.1785 48.5024C56.8821 47.449 57.1252 45.3423 58.5836 44.5321C60.0016 43.7218 61.9867 44.208 63.0806 45.6259C63.3237 45.9095 63.4857 46.2336 63.7288 46.5577C65.1063 45.6259 66.5242 44.6941 67.9827 43.7623ZM30.1029 62.1553C30.9131 63.8974 32.088 65.2748 33.7491 66.1661C35.8963 67.341 38.246 67.5435 40.6363 67.1789C42.7835 66.8548 44.5661 65.8825 45.741 63.9379C46.7133 62.3173 46.9969 60.5348 46.9969 58.6306C46.9969 52.4726 46.9969 46.3147 46.9969 40.1566C46.9969 39.9946 46.9969 39.792 46.9969 39.5895C45.0928 39.5895 43.2697 39.5895 41.3655 39.5895C41.3655 39.8325 41.3655 40.0351 41.3655 40.2782C41.3655 46.3552 41.3655 52.3916 41.3655 58.4686C41.3655 59.0358 41.325 59.6435 41.244 60.2107C41.082 61.1425 40.5958 61.8312 39.664 62.1148C37.9219 62.6415 36.504 62.1148 35.4911 60.6158C35.2481 60.2107 35.005 59.8055 34.7214 59.4004C33.1414 60.3322 31.6424 61.2235 30.1029 62.1553Z" fill="white"/>
<path d="M7.616 85.768V93.416C7.616 94.6 7.28 95.512 6.608 96.152C5.94667 96.792 5.05067 97.112 3.92 97.112C2.736 97.112 1.78667 96.776 1.072 96.104C0.357333 95.432 -3.57628e-07 94.4773 -3.57628e-07 93.24H2.72C2.72 93.7093 2.816 94.0667 3.008 94.312C3.2 94.5467 3.47733 94.664 3.84 94.664C4.17067 94.664 4.42667 94.5573 4.608 94.344C4.78933 94.1307 4.88 93.8213 4.88 93.416V85.768H7.616ZM9.282 92.52C9.282 91.6027 9.45267 90.7973 9.794 90.104C10.146 89.4107 10.6207 88.8773 11.218 88.504C11.8153 88.1307 12.482 87.944 13.218 87.944C13.8473 87.944 14.3967 88.072 14.866 88.328C15.346 88.584 15.714 88.92 15.97 89.336V88.072H18.706V97H15.97V95.736C15.7033 96.152 15.33 96.488 14.85 96.744C14.3807 97 13.8313 97.128 13.202 97.128C12.4767 97.128 11.8153 96.9413 11.218 96.568C10.6207 96.184 10.146 95.6453 9.794 94.952C9.45267 94.248 9.282 93.4373 9.282 92.52ZM15.97 92.536C15.97 91.8533 15.778 91.3147 15.394 90.92C15.0207 90.5253 14.562 90.328 14.018 90.328C13.474 90.328 13.01 90.5253 12.626 90.92C12.2527 91.304 12.066 91.8373 12.066 92.52C12.066 93.2027 12.2527 93.7467 12.626 94.152C13.01 94.5467 13.474 94.744 14.018 94.744C14.562 94.744 15.0207 94.5467 15.394 94.152C15.778 93.7573 15.97 93.2187 15.97 92.536ZM24.7014 94.44L26.6374 88.072H29.5494L26.3814 97H23.0054L19.8374 88.072H22.7654L24.7014 94.44ZM30.157 92.52C30.157 91.6027 30.3277 90.7973 30.669 90.104C31.021 89.4107 31.4957 88.8773 32.093 88.504C32.6903 88.1307 33.357 87.944 34.093 87.944C34.7223 87.944 35.2717 88.072 35.741 88.328C36.221 88.584 36.589 88.92 36.845 89.336V88.072H39.581V97H36.845V95.736C36.5783 96.152 36.205 96.488 35.725 96.744C35.2557 97 34.7063 97.128 34.077 97.128C33.3517 97.128 32.6903 96.9413 32.093 96.568C31.4957 96.184 31.021 95.6453 30.669 94.952C30.3277 94.248 30.157 93.4373 30.157 92.52ZM36.845 92.536C36.845 91.8533 36.653 91.3147 36.269 90.92C35.8957 90.5253 35.437 90.328 34.893 90.328C34.349 90.328 33.885 90.5253 33.501 90.92C33.1277 91.304 32.941 91.8373 32.941 92.52C32.941 93.2027 33.1277 93.7467 33.501 94.152C33.885 94.5467 34.349 94.744 34.893 94.744C35.437 94.744 35.8957 94.5467 36.269 94.152C36.653 93.7573 36.845 93.2187 36.845 92.536ZM45.6244 97.112C44.803 97.112 44.067 96.9787 43.4164 96.712C42.7657 96.4453 42.243 96.0507 41.8484 95.528C41.4644 95.0053 41.2617 94.376 41.2404 93.64H44.1524C44.195 94.056 44.339 94.376 44.5844 94.6C44.8297 94.8133 45.1497 94.92 45.5444 94.92C45.9497 94.92 46.2697 94.8293 46.5044 94.648C46.739 94.456 46.8564 94.1947 46.8564 93.864C46.8564 93.5867 46.7604 93.3573 46.5684 93.176C46.387 92.9947 46.1577 92.8453 45.8804 92.728C45.6137 92.6107 45.2297 92.4773 44.7284 92.328C44.003 92.104 43.411 91.88 42.9524 91.656C42.4937 91.432 42.099 91.1013 41.7684 90.664C41.4377 90.2267 41.2724 89.656 41.2724 88.952C41.2724 87.9067 41.651 87.0907 42.4084 86.504C43.1657 85.9067 44.1524 85.608 45.3684 85.608C46.6057 85.608 47.603 85.9067 48.3604 86.504C49.1177 87.0907 49.523 87.912 49.5764 88.968H46.6164C46.595 88.6053 46.4617 88.3227 46.2164 88.12C45.971 87.9067 45.6564 87.8 45.2724 87.8C44.9417 87.8 44.675 87.8907 44.4724 88.072C44.2697 88.2427 44.1684 88.4933 44.1684 88.824C44.1684 89.1867 44.339 89.4693 44.6804 89.672C45.0217 89.8747 45.555 90.0933 46.2804 90.328C47.0057 90.5733 47.5924 90.808 48.0404 91.032C48.499 91.256 48.8937 91.5813 49.2244 92.008C49.555 92.4347 49.7204 92.984 49.7204 93.656C49.7204 94.296 49.555 94.8773 49.2244 95.4C48.9044 95.9227 48.435 96.3387 47.8164 96.648C47.1977 96.9573 46.467 97.112 45.6244 97.112ZM50.8601 92.536C50.8601 91.608 51.0468 90.7973 51.4201 90.104C51.8041 89.4107 52.3321 88.8773 53.0041 88.504C53.6868 88.1307 54.4655 87.944 55.3401 87.944C56.4601 87.944 57.3935 88.2373 58.1401 88.824C58.8975 89.4107 59.3935 90.2373 59.6281 91.304H56.7161C56.4708 90.6213 55.9961 90.28 55.2921 90.28C54.7908 90.28 54.3908 90.4773 54.0921 90.872C53.7935 91.256 53.6441 91.8107 53.6441 92.536C53.6441 93.2613 53.7935 93.8213 54.0921 94.216C54.3908 94.6 54.7908 94.792 55.2921 94.792C55.9961 94.792 56.4708 94.4507 56.7161 93.768H59.6281C59.3935 94.8133 58.8975 95.6347 58.1401 96.232C57.3828 96.8293 56.4495 97.128 55.3401 97.128C54.4655 97.128 53.6868 96.9413 53.0041 96.568C52.3321 96.1947 51.8041 95.6613 51.4201 94.968C51.0468 94.2747 50.8601 93.464 50.8601 92.536ZM63.8276 89.56C64.1476 89.0693 64.5476 88.6853 65.0276 88.408C65.5076 88.12 66.041 87.976 66.6276 87.976V90.872H65.8756C65.193 90.872 64.681 91.0213 64.3396 91.32C63.9983 91.608 63.8276 92.12 63.8276 92.856V97H61.0916V88.072H63.8276V89.56ZM69.3114 87.144C68.8314 87.144 68.4367 87.0053 68.1274 86.728C67.8287 86.44 67.6794 86.088 67.6794 85.672C67.6794 85.2453 67.8287 84.8933 68.1274 84.616C68.4367 84.328 68.8314 84.184 69.3114 84.184C69.7807 84.184 70.1647 84.328 70.4634 84.616C70.7727 84.8933 70.9274 85.2453 70.9274 85.672C70.9274 86.088 70.7727 86.44 70.4634 86.728C70.1647 87.0053 69.7807 87.144 69.3114 87.144ZM70.6714 88.072V97H67.9354V88.072H70.6714ZM75.3901 89.336C75.6568 88.92 76.0248 88.584 76.4941 88.328C76.9635 88.072 77.5128 87.944 78.1421 87.944C78.8781 87.944 79.5448 88.1307 80.1421 88.504C80.7395 88.8773 81.2088 89.4107 81.5501 90.104C81.9021 90.7973 82.0781 91.6027 82.0781 92.52C82.0781 93.4373 81.9021 94.248 81.5501 94.952C81.2088 95.6453 80.7395 96.184 80.1421 96.568C79.5448 96.9413 78.8781 97.128 78.1421 97.128C77.5235 97.128 76.9741 97 76.4941 96.744C76.0248 96.488 75.6568 96.1573 75.3901 95.752V101.256H72.6541V88.072H75.3901V89.336ZM79.2941 92.52C79.2941 91.8373 79.1021 91.304 78.7181 90.92C78.3448 90.5253 77.8808 90.328 77.3261 90.328C76.7821 90.328 76.3181 90.5253 75.9341 90.92C75.5608 91.3147 75.3741 91.8533 75.3741 92.536C75.3741 93.2187 75.5608 93.7573 75.9341 94.152C76.3181 94.5467 76.7821 94.744 77.3261 94.744C77.8701 94.744 78.3341 94.5467 78.7181 94.152C79.1021 93.7467 79.2941 93.2027 79.2941 92.52ZM88.4895 94.68V97H87.0975C86.1055 97 85.3322 96.76 84.7775 96.28C84.2228 95.7893 83.9455 94.9947 83.9455 93.896V90.344H82.8575V88.072H83.9455V85.896H86.6815V88.072H88.4735V90.344H86.6815V93.928C86.6815 94.1947 86.7455 94.3867 86.8735 94.504C87.0015 94.6213 87.2148 94.68 87.5135 94.68H88.4895Z" fill="white"/>
</svg>
