<svg width="88" height="121" viewBox="0 0 88 121" fill="none" xmlns="http://www.w3.org/2000/svg">
<g clip-path="url(#clip0_90_263)">
<path d="M21.9 21.8V62.3C17 56.9 14 49.8 14 42C14 34.2 17 27.1 21.9 21.8Z" fill="white"/>
<path d="M25.1 26.2L42.4 60.9H25.1V26.2Z" fill="white"/>
<path d="M44 57L27 23.1H61L44 57Z" fill="white"/>
<path d="M44 12C51.8 12 58.9 15 64.2 19.9H23.8C29.1 15 36.2 12 44 12Z" fill="white"/>
<path d="M62.9 60.9H45.6L62.9 26.2V60.9Z" fill="white"/>
<path d="M64.2 64.1C58.9 69 51.8 72 44 72C36.2 72 29.1 69 23.8 64.1H64.2Z" fill="white"/>
<path d="M66.1 62.2V21.8C71 27.1 74 34.2 74 42C74 49.8 71 56.9 66.1 62.2Z" fill="white"/>
<path d="M25.1 26.2L42.4 60.9H25.1V26.2Z" fill="white"/>
<path d="M44 57L27 23.1H61L44 57Z" fill="white"/>
<path d="M45.6 60.9L62.9 26.2V60.9H45.6Z" fill="white"/>
<path d="M27 23.1H61L44 57L27 23.1Z" fill="white"/>
</g>
<path d="M23.1886 85.768V97H20.4526V90.264L17.9406 97H15.7326L13.2046 90.248V97H10.4686V85.768H13.7006L16.8526 93.544L19.9726 85.768H23.1886ZM24.6121 92.52C24.6121 91.6027 24.7827 90.7973 25.1241 90.104C25.4761 89.4107 25.9507 88.8773 26.5481 88.504C27.1454 88.1307 27.8121 87.944 28.5481 87.944C29.1774 87.944 29.7267 88.072 30.1961 88.328C30.6761 88.584 31.0441 88.92 31.3001 89.336V88.072H34.0361V97H31.3001V95.736C31.0334 96.152 30.6601 96.488 30.1801 96.744C29.7107 97 29.1614 97.128 28.5321 97.128C27.8067 97.128 27.1454 96.9413 26.5481 96.568C25.9507 96.184 25.4761 95.6453 25.1241 94.952C24.7827 94.248 24.6121 93.4373 24.6121 92.52ZM31.3001 92.536C31.3001 91.8533 31.1081 91.3147 30.7241 90.92C30.3507 90.5253 29.8921 90.328 29.3481 90.328C28.8041 90.328 28.3401 90.5253 27.9561 90.92C27.5827 91.304 27.3961 91.8373 27.3961 92.52C27.3961 93.2027 27.5827 93.7467 27.9561 94.152C28.3401 94.5467 28.8041 94.744 29.3481 94.744C29.8921 94.744 30.3507 94.5467 30.7241 94.152C31.1081 93.7573 31.3001 93.2187 31.3001 92.536ZM40.9914 94.68V97H39.5994C38.6074 97 37.8341 96.76 37.2794 96.28C36.7248 95.7893 36.4474 94.9947 36.4474 93.896V90.344H35.3594V88.072H36.4474V85.896H39.1834V88.072H40.9754V90.344H39.1834V93.928C39.1834 94.1947 39.2474 94.3867 39.3754 94.504C39.5034 94.6213 39.7168 94.68 40.0154 94.68H40.9914ZM50.9314 92.392C50.9314 92.648 50.9154 92.9147 50.8834 93.192H44.6914C44.7341 93.7467 44.9101 94.1733 45.2194 94.472C45.5394 94.76 45.9288 94.904 46.3874 94.904C47.0701 94.904 47.5448 94.616 47.8114 94.04H50.7234C50.5741 94.6267 50.3021 95.1547 49.9074 95.624C49.5234 96.0933 49.0381 96.4613 48.4514 96.728C47.8648 96.9947 47.2088 97.128 46.4834 97.128C45.6088 97.128 44.8301 96.9413 44.1474 96.568C43.4648 96.1947 42.9314 95.6613 42.5474 94.968C42.1634 94.2747 41.9714 93.464 41.9714 92.536C41.9714 91.608 42.1581 90.7973 42.5314 90.104C42.9154 89.4107 43.4488 88.8773 44.1314 88.504C44.8141 88.1307 45.5981 87.944 46.4834 87.944C47.3474 87.944 48.1154 88.1253 48.7874 88.488C49.4594 88.8507 49.9821 89.368 50.3554 90.04C50.7394 90.712 50.9314 91.496 50.9314 92.392ZM48.1314 91.672C48.1314 91.2027 47.9714 90.8293 47.6514 90.552C47.3314 90.2747 46.9314 90.136 46.4514 90.136C45.9928 90.136 45.6034 90.2693 45.2834 90.536C44.9741 90.8027 44.7821 91.1813 44.7074 91.672H48.1314ZM55.1108 89.56C55.4308 89.0693 55.8308 88.6853 56.3108 88.408C56.7908 88.12 57.3241 87.976 57.9108 87.976V90.872H57.1588C56.4761 90.872 55.9641 91.0213 55.6228 91.32C55.2815 91.608 55.1108 92.12 55.1108 92.856V97H52.3748V88.072H55.1108V89.56ZM60.5946 87.144C60.1146 87.144 59.7199 87.0053 59.4106 86.728C59.1119 86.44 58.9626 86.088 58.9626 85.672C58.9626 85.2453 59.1119 84.8933 59.4106 84.616C59.7199 84.328 60.1146 84.184 60.5946 84.184C61.0639 84.184 61.4479 84.328 61.7466 84.616C62.0559 84.8933 62.2106 85.2453 62.2106 85.672C62.2106 86.088 62.0559 86.44 61.7466 86.728C61.4479 87.0053 61.0639 87.144 60.5946 87.144ZM61.9546 88.072V97H59.2186V88.072H61.9546ZM63.3933 92.52C63.3933 91.6027 63.564 90.7973 63.9053 90.104C64.2573 89.4107 64.732 88.8773 65.3293 88.504C65.9266 88.1307 66.5933 87.944 67.3293 87.944C67.9586 87.944 68.508 88.072 68.9773 88.328C69.4573 88.584 69.8253 88.92 70.0813 89.336V88.072H72.8173V97H70.0813V95.736C69.8146 96.152 69.4413 96.488 68.9613 96.744C68.492 97 67.9426 97.128 67.3133 97.128C66.588 97.128 65.9266 96.9413 65.3293 96.568C64.732 96.184 64.2573 95.6453 63.9053 94.952C63.564 94.248 63.3933 93.4373 63.3933 92.52ZM70.0813 92.536C70.0813 91.8533 69.8893 91.3147 69.5053 90.92C69.132 90.5253 68.6733 90.328 68.1293 90.328C67.5853 90.328 67.1213 90.5253 66.7373 90.92C66.364 91.304 66.1773 91.8373 66.1773 92.52C66.1773 93.2027 66.364 93.7467 66.7373 94.152C67.1213 94.5467 67.5853 94.744 68.1293 94.744C68.6733 94.744 69.132 94.5467 69.5053 94.152C69.8893 93.7573 70.0813 93.2187 70.0813 92.536ZM77.5327 85.16V97H74.7967V85.16H77.5327ZM20.8172 104.768C22.0012 104.768 23.0359 105.003 23.9212 105.472C24.8065 105.941 25.4892 106.603 25.9692 107.456C26.4599 108.299 26.7052 109.275 26.7052 110.384C26.7052 111.483 26.4599 112.459 25.9692 113.312C25.4892 114.165 24.8012 114.827 23.9052 115.296C23.0199 115.765 21.9905 116 20.8172 116H16.6092V104.768H20.8172ZM20.6412 113.632C21.6759 113.632 22.4812 113.349 23.0572 112.784C23.6332 112.219 23.9212 111.419 23.9212 110.384C23.9212 109.349 23.6332 108.544 23.0572 107.968C22.4812 107.392 21.6759 107.104 20.6412 107.104H19.3452V113.632H20.6412ZM36.6502 111.392C36.6502 111.648 36.6342 111.915 36.6022 112.192H30.4102C30.4529 112.747 30.6289 113.173 30.9382 113.472C31.2582 113.76 31.6475 113.904 32.1062 113.904C32.7889 113.904 33.2635 113.616 33.5302 113.04H36.4422C36.2929 113.627 36.0209 114.155 35.6262 114.624C35.2422 115.093 34.7569 115.461 34.1702 115.728C33.5835 115.995 32.9275 116.128 32.2022 116.128C31.3275 116.128 30.5489 115.941 29.8662 115.568C29.1835 115.195 28.6502 114.661 28.2662 113.968C27.8822 113.275 27.6902 112.464 27.6902 111.536C27.6902 110.608 27.8769 109.797 28.2502 109.104C28.6342 108.411 29.1675 107.877 29.8502 107.504C30.5329 107.131 31.3169 106.944 32.2022 106.944C33.0662 106.944 33.8342 107.125 34.5062 107.488C35.1782 107.851 35.7009 108.368 36.0742 109.04C36.4582 109.712 36.6502 110.496 36.6502 111.392ZM33.8502 110.672C33.8502 110.203 33.6902 109.829 33.3702 109.552C33.0502 109.275 32.6502 109.136 32.1702 109.136C31.7115 109.136 31.3222 109.269 31.0022 109.536C30.6929 109.803 30.5009 110.181 30.4262 110.672H33.8502ZM41.7256 116.128C40.9469 116.128 40.2536 115.995 39.6456 115.728C39.0376 115.461 38.5576 115.099 38.2056 114.64C37.8536 114.171 37.6562 113.648 37.6136 113.072H40.3176C40.3496 113.381 40.4936 113.632 40.7496 113.824C41.0056 114.016 41.3202 114.112 41.6936 114.112C42.0349 114.112 42.2962 114.048 42.4776 113.92C42.6696 113.781 42.7656 113.605 42.7656 113.392C42.7656 113.136 42.6322 112.949 42.3656 112.832C42.0989 112.704 41.6669 112.565 41.0696 112.416C40.4296 112.267 39.8962 112.112 39.4696 111.952C39.0429 111.781 38.6749 111.52 38.3656 111.168C38.0562 110.805 37.9016 110.32 37.9016 109.712C37.9016 109.2 38.0402 108.736 38.3176 108.32C38.6056 107.893 39.0216 107.557 39.5656 107.312C40.1202 107.067 40.7762 106.944 41.5336 106.944C42.6536 106.944 43.5336 107.221 44.1736 107.776C44.8242 108.331 45.1976 109.067 45.2936 109.984H42.7656C42.7229 109.675 42.5842 109.429 42.3496 109.248C42.1256 109.067 41.8269 108.976 41.4536 108.976C41.1336 108.976 40.8882 109.04 40.7176 109.168C40.5469 109.285 40.4616 109.451 40.4616 109.664C40.4616 109.92 40.5949 110.112 40.8616 110.24C41.1389 110.368 41.5656 110.496 42.1416 110.624C42.8029 110.795 43.3416 110.965 43.7576 111.136C44.1736 111.296 44.5362 111.563 44.8456 111.936C45.1656 112.299 45.3309 112.789 45.3416 113.408C45.3416 113.931 45.1922 114.4 44.8936 114.816C44.6056 115.221 44.1842 115.541 43.6296 115.776C43.0856 116.011 42.4509 116.128 41.7256 116.128ZM48.3914 106.144C47.9114 106.144 47.5168 106.005 47.2074 105.728C46.9088 105.44 46.7594 105.088 46.7594 104.672C46.7594 104.245 46.9088 103.893 47.2074 103.616C47.5168 103.328 47.9114 103.184 48.3914 103.184C48.8608 103.184 49.2448 103.328 49.5434 103.616C49.8528 103.893 50.0074 104.245 50.0074 104.672C50.0074 105.088 49.8528 105.44 49.5434 105.728C49.2448 106.005 48.8608 106.144 48.3914 106.144ZM49.7514 107.072V116H47.0154V107.072H49.7514ZM55.1262 106.944C55.7555 106.944 56.3049 107.072 56.7742 107.328C57.2542 107.584 57.6222 107.92 57.8782 108.336V107.072H60.6142V115.984C60.6142 116.805 60.4489 117.547 60.1182 118.208C59.7982 118.88 59.3022 119.413 58.6302 119.808C57.9689 120.203 57.1422 120.4 56.1502 120.4C54.8275 120.4 53.7555 120.085 52.9342 119.456C52.1129 118.837 51.6435 117.995 51.5262 116.928H54.2302C54.3155 117.269 54.5182 117.536 54.8382 117.728C55.1582 117.931 55.5529 118.032 56.0222 118.032C56.5875 118.032 57.0355 117.867 57.3662 117.536C57.7075 117.216 57.8782 116.699 57.8782 115.984V114.72C57.6115 115.136 57.2435 115.477 56.7742 115.744C56.3049 116 55.7555 116.128 55.1262 116.128C54.3902 116.128 53.7235 115.941 53.1262 115.568C52.5289 115.184 52.0542 114.645 51.7022 113.952C51.3609 113.248 51.1902 112.437 51.1902 111.52C51.1902 110.603 51.3609 109.797 51.7022 109.104C52.0542 108.411 52.5289 107.877 53.1262 107.504C53.7235 107.131 54.3902 106.944 55.1262 106.944ZM57.8782 111.536C57.8782 110.853 57.6862 110.315 57.3022 109.92C56.9289 109.525 56.4702 109.328 55.9262 109.328C55.3822 109.328 54.9182 109.525 54.5342 109.92C54.1609 110.304 53.9742 110.837 53.9742 111.52C53.9742 112.203 54.1609 112.747 54.5342 113.152C54.9182 113.547 55.3822 113.744 55.9262 113.744C56.4702 113.744 56.9289 113.547 57.3022 113.152C57.6862 112.757 57.8782 112.219 57.8782 111.536ZM68.0336 106.976C69.0789 106.976 69.9109 107.317 70.5296 108C71.1589 108.672 71.4736 109.6 71.4736 110.784V116H68.7536V111.152C68.7536 110.555 68.5989 110.091 68.2896 109.76C67.9802 109.429 67.5642 109.264 67.0416 109.264C66.5189 109.264 66.1029 109.429 65.7936 109.76C65.4842 110.091 65.3296 110.555 65.3296 111.152V116H62.5936V107.072H65.3296V108.256C65.6069 107.861 65.9802 107.552 66.4496 107.328C66.9189 107.093 67.4469 106.976 68.0336 106.976Z" fill="white"/>
<defs>
<clipPath id="clip0_90_263">
<rect width="60" height="60" fill="white" transform="translate(14 12)"/>
</clipPath>
</defs>
</svg>
