<svg width="88" height="101" viewBox="0 0 88 101" fill="none" xmlns="http://www.w3.org/2000/svg">
<path d="M36.7256 66.8917C32.6823 65.7545 29.1264 63.6607 26.0217 60.7365C25.0469 61.0794 24.0542 61.4224 23.0433 61.7473C22.574 61.8917 22.1047 61.8375 21.6173 61.657C20.7509 61.3321 20.2274 60.7004 19.8484 59.9242C19.3249 58.8953 18.657 57.9567 18.1336 56.9278C17.6643 55.9711 16.9783 55.1408 16.5812 54.148C16.3827 53.6607 15.8592 53.3357 15.8592 52.722C15.3899 51.9639 15.8412 51.296 16.1119 50.6282C16.1841 50.4477 16.2744 50.213 16.4368 50.1408C17.0866 49.852 17.4116 49.2022 17.9531 48.8051C18.2058 48.6245 18.4765 48.426 18.7653 48.2094C18.3502 46.1336 17.9892 44.0578 17.9892 41.9278C17.9892 39.8159 18.3682 37.7762 18.7653 35.7545C18.0614 35.1047 17.4116 34.4729 16.7256 33.8773C16.0217 33.2635 15.6065 32.5054 15.6968 31.7112C15.7509 31.278 15.8773 30.8087 16.0939 30.4477C16.7617 29.3827 17.3755 28.2635 18.0253 27.1805C18.5487 26.3141 19 25.4116 19.5776 24.5632C19.8845 24.13 20.065 23.6245 20.3718 23.1733C20.9675 22.3249 22.1588 21.9097 23.1336 22.1986C24 22.4513 24.8123 22.8303 25.6968 22.9928C25.787 23.0108 25.8592 23.1372 25.9495 23.2274C29.0722 20.3213 32.6282 18.2455 36.7076 17.0361C36.87 16.5487 36.9061 16.0253 37.1047 15.5199C37.2491 15.1408 37.213 14.6715 37.2852 14.2563C37.4838 13.1733 38.1516 12.5415 39.1083 12.2166C39.4513 12.1083 39.7942 12 40.2094 12C42.7365 12.0361 45.2635 12.0361 47.7906 12C48.5126 12 49.1264 12.2888 49.704 12.6137C50.2274 12.8845 50.5162 13.4621 50.6607 14.0036C50.9134 14.9964 51.0578 16.0072 51.2563 17.0542C55.3177 18.2094 58.8736 20.2852 61.9783 23.2094C62.9531 22.8664 63.9459 22.5235 64.9567 22.1986C65.426 22.0542 65.8953 22.1083 66.3827 22.2888C67.2491 22.6137 67.7726 23.2455 68.1516 24.0217C68.6751 25.0505 69.343 25.9892 69.8664 27.0181C70.3357 27.9747 71.0217 28.8051 71.4188 29.7978C71.6173 30.2852 72.1408 30.6101 72.1408 31.2238C72.6101 31.982 72.1588 32.6498 71.8881 33.3177C71.8159 33.4982 71.7256 33.7329 71.5632 33.8051C70.9134 34.0939 70.5885 34.7437 70.0469 35.1408C69.7942 35.3213 69.5235 35.5199 69.2347 35.7365C69.6498 37.8123 70.0108 39.8881 70.0108 42.018C70.0108 44.13 69.6859 46.1697 69.2347 48.1913C69.9386 48.8412 70.5885 49.4729 71.2744 50.0686C71.9783 50.6823 72.3935 51.4404 72.3033 52.2347C72.2491 52.6679 72.1408 53.1372 71.9061 53.4982C71.2563 54.5451 70.6426 55.6282 70.0108 56.6931C69.2166 58.0108 68.5668 59.4368 67.6462 60.6823C67.4838 61.3682 66.8339 61.4224 66.3646 61.6751C65.8592 61.9458 65.3538 61.8736 64.7942 61.7112C63.9639 61.4765 63.1697 61.0614 62.3033 60.9531C62.213 60.935 62.1408 60.8087 62.0505 60.7184C58.9278 63.6607 55.3899 65.7545 51.2563 66.9278C51.0578 67.9025 50.8773 68.9134 50.6607 69.9061C50.444 70.8809 49.7942 71.4946 48.8736 71.7834C48.5307 71.8917 48.1697 72 47.7726 72C45.2455 71.9639 42.7184 71.9639 40.1913 72C39.4693 72 38.8556 71.7112 38.278 71.3863C37.7545 71.1155 37.4477 70.5379 37.3394 69.9964C37.1408 68.9314 36.9422 67.9386 36.7256 66.8917ZM37.8989 50.9892C38.2599 50.7906 38.6751 50.6643 38.6931 50.231C38.7292 49.5812 38.8195 48.9134 38.6751 48.2996C38.4224 47.2527 37.9711 46.2419 37.7004 45.1949C37.5199 44.5271 37.1227 43.8953 37.1408 43.1733C36.5632 41.7473 36.2022 40.2491 35.7148 38.8051C35.3177 37.6137 35.0289 36.3863 34.5957 35.213C34.361 34.5632 34.3069 33.8412 33.8736 33.2635C33.8375 33.2094 33.8195 33.1733 33.8195 33.1733C33.3321 32.8484 32.8267 32.9567 32.3935 32.9567C32.1408 33.1913 31.9242 33.3899 31.7256 33.5704C31.7076 34.148 31.2924 34.5993 31.3646 35.1588C30.7329 36.5668 30.4621 38.083 29.9386 39.5271C29.6679 40.2671 29.5054 41.0253 29.2888 41.7834C29.0903 42.5415 28.657 43.2274 28.657 44.0397C27.9711 45.574 27.6282 47.2166 27.1227 48.8231C26.9964 49.2202 26.9242 49.5993 27.1769 49.9783C27.2491 50.0866 27.213 50.2491 27.213 50.231C27.5018 50.5379 27.7184 50.7545 27.8989 50.9711C28.2419 50.9711 28.6029 50.9711 28.982 50.9711C29.2347 50.6462 29.4874 50.3394 29.722 50.0325C29.6679 49.0036 29.8845 48.3177 30.3538 47.2166C32.1227 47.2166 33.8917 47.2166 35.6607 47.2166C35.8051 47.7942 35.8773 48.3538 36.0758 48.8773C36.1661 49.0939 36.2563 49.3105 36.2202 49.5271C36.1661 50.1949 36.3827 50.7184 37.1408 50.9711C37.3213 50.9892 37.5921 50.9892 37.8989 50.9892ZM42.1227 50.9892C42.6101 50.9531 43.1697 51.0975 43.5668 50.7004C43.7112 50.5199 43.8375 50.3394 44.0181 50.0866C44.0181 48.2816 44.0181 46.3863 44.0181 44.491C45.3357 44.491 46.6354 44.4368 47.917 44.509C48.6931 44.5451 49.3249 44.3105 49.9386 43.9314C50.2274 43.7509 50.4801 43.4801 50.7329 43.2274C51.4007 42.5776 51.7256 41.7834 51.7437 40.8448C51.7437 39.3646 51.7437 37.9025 51.7437 36.4224C51.7437 36.2058 51.6895 35.9711 51.6354 35.7545C51.4368 34.9783 51.0217 34.4007 50.4621 33.8953C49.8123 33.2996 49.0542 32.9386 48.1516 32.9386C46.13 32.9386 44.1264 32.9386 42.0866 32.9386C41.8881 33.1552 41.6895 33.3718 41.4549 33.5884C41.4549 39.148 41.4549 44.7437 41.4549 50.3574C41.6895 50.556 41.9061 50.7726 42.1227 50.9892ZM55.1191 50.9892C56.3646 50.9892 57.6282 50.9892 58.8736 50.9892C59.0903 50.7726 59.3069 50.556 59.5235 50.3574C59.5235 50.0144 59.5235 49.6895 59.5235 49.3466C59.5235 49.3105 59.5235 49.2924 59.5235 49.2744C59.2527 48.769 58.8375 48.4621 58.296 48.4079C58.296 44.0939 58.296 39.7978 58.296 35.5921C58.6931 35.3935 59.0361 35.213 59.4332 34.9964C59.4874 34.5271 59.5235 34.0397 59.5596 33.6968C59.2708 33.3718 59.0722 33.1372 58.9097 32.9567C57.6101 32.9567 56.3466 32.9567 55.2274 32.9567C54.9206 33.2274 54.704 33.426 54.4332 33.6787C54.4874 34.1119 54.5596 34.5993 54.6137 35.0144C55.0469 35.231 55.3899 35.4116 55.6968 35.574C55.6968 39.87 55.6968 44.1661 55.6968 48.426C55.5162 48.4621 55.3177 48.426 55.2455 48.5162C54.9928 48.769 54.5596 48.8412 54.4693 49.2563C54.4693 49.6173 54.4693 49.9783 54.4693 50.3394C54.6859 50.556 54.9025 50.7726 55.1191 50.9892Z" fill="white"/>
<path d="M34.7039 44.4546C33.6389 44.4907 32.5198 44.5088 31.4006 44.5449C31.3645 44.5449 31.3104 44.6171 31.2021 44.7073C31.2201 43.5882 31.8519 42.6857 31.9241 41.6568C32.4656 40.7543 32.5198 39.6893 32.8808 38.6785C32.9891 38.7868 33.1515 38.8951 33.1515 38.9853C33.1696 39.7615 33.6208 40.4294 33.7652 41.1694C33.8736 41.6749 34.1624 42.1622 34.2346 42.6676C34.3068 43.3175 34.74 43.8048 34.7039 44.4546Z" fill="white"/>
<path d="M49.2349 40.9534C49.1085 41.1519 49.0002 41.3505 48.8558 41.531C48.6031 41.8198 48.2782 41.9823 47.863 41.9642C46.5995 41.9462 45.3359 41.9642 44.0363 41.9642C44.0363 39.8162 44.0363 37.6682 44.0363 35.466C45.354 35.466 46.7078 35.448 48.0435 35.466C48.6753 35.4841 49.2168 36.1339 49.2349 36.8198C49.2349 37.957 49.2349 39.0942 49.2349 40.2314C49.2349 40.4841 49.2349 40.7187 49.2349 40.9534Z" fill="white"/>
<path d="M13.6341 97L11.2981 92.76H10.6421V97H7.90606V85.768H12.4981C13.3834 85.768 14.1354 85.9227 14.7541 86.232C15.3834 86.5413 15.8527 86.968 16.1621 87.512C16.4714 88.0453 16.6261 88.6427 16.6261 89.304C16.6261 90.0507 16.4127 90.7173 15.9861 91.304C15.5701 91.8907 14.9514 92.3067 14.1301 92.552L16.7221 97H13.6341ZM10.6421 90.824H12.3381C12.8394 90.824 13.2127 90.7013 13.4581 90.456C13.7141 90.2107 13.8421 89.864 13.8421 89.416C13.8421 88.9893 13.7141 88.6533 13.4581 88.408C13.2127 88.1627 12.8394 88.04 12.3381 88.04H10.6421V90.824ZM21.0796 87.96V90.232H24.7436V92.344H21.0796V94.808H25.2236V97H18.3436V85.768H25.2236V87.96H21.0796ZM31.0638 97.112C30.2425 97.112 29.5065 96.9787 28.8558 96.712C28.2051 96.4453 27.6825 96.0507 27.2878 95.528C26.9038 95.0053 26.7011 94.376 26.6798 93.64H29.5918C29.6345 94.056 29.7785 94.376 30.0238 94.6C30.2691 94.8133 30.5891 94.92 30.9838 94.92C31.3891 94.92 31.7091 94.8293 31.9438 94.648C32.1785 94.456 32.2958 94.1947 32.2958 93.864C32.2958 93.5867 32.1998 93.3573 32.0078 93.176C31.8265 92.9947 31.5971 92.8453 31.3198 92.728C31.0531 92.6107 30.6691 92.4773 30.1678 92.328C29.4425 92.104 28.8505 91.88 28.3918 91.656C27.9331 91.432 27.5385 91.1013 27.2078 90.664C26.8771 90.2267 26.7118 89.656 26.7118 88.952C26.7118 87.9067 27.0905 87.0907 27.8478 86.504C28.6051 85.9067 29.5918 85.608 30.8078 85.608C32.0451 85.608 33.0425 85.9067 33.7998 86.504C34.5571 87.0907 34.9625 87.912 35.0158 88.968H32.0558C32.0345 88.6053 31.9011 88.3227 31.6558 88.12C31.4105 87.9067 31.0958 87.8 30.7118 87.8C30.3811 87.8 30.1145 87.8907 29.9118 88.072C29.7091 88.2427 29.6078 88.4933 29.6078 88.824C29.6078 89.1867 29.7785 89.4693 30.1198 89.672C30.4611 89.8747 30.9945 90.0933 31.7198 90.328C32.4451 90.5733 33.0318 90.808 33.4798 91.032C33.9385 91.256 34.3331 91.5813 34.6638 92.008C34.9945 92.4347 35.1598 92.984 35.1598 93.656C35.1598 94.296 34.9945 94.8773 34.6638 95.4C34.3438 95.9227 33.8745 96.3387 33.2558 96.648C32.6371 96.9573 31.9065 97.112 31.0638 97.112ZM44.9236 85.768V87.96H41.9476V97H39.2116V87.96H36.2356V85.768H44.9236ZM53.1767 90.248V92.52H46.1367V90.248H53.1767ZM62.5699 95.016H58.3779L57.7059 97H54.8419L58.9059 85.768H62.0739L66.1379 97H63.2419L62.5699 95.016ZM61.8659 92.904L60.4739 88.792L59.0979 92.904H61.8659ZM75.9348 89.384C75.9348 90.0347 75.7855 90.632 75.4868 91.176C75.1881 91.7093 74.7295 92.1413 74.1108 92.472C73.4921 92.8027 72.7241 92.968 71.8068 92.968H70.1108V97H67.3748V85.768H71.8068C72.7028 85.768 73.4601 85.9227 74.0788 86.232C74.6975 86.5413 75.1615 86.968 75.4708 87.512C75.7801 88.056 75.9348 88.68 75.9348 89.384ZM71.5988 90.792C72.1215 90.792 72.5108 90.6693 72.7668 90.424C73.0228 90.1787 73.1508 89.832 73.1508 89.384C73.1508 88.936 73.0228 88.5893 72.7668 88.344C72.5108 88.0987 72.1215 87.976 71.5988 87.976H70.1108V90.792H71.5988ZM80.0952 85.768V97H77.3592V85.768H80.0952Z" fill="white"/>
</svg>
