<svg width="88" height="101" viewBox="0 0 88 101" fill="none" xmlns="http://www.w3.org/2000/svg">
<path fill-rule="evenodd" clip-rule="evenodd" d="M72.7259 28.6768L67.4085 36.1118L62.091 28.6768H64.9903C64.7693 23.1525 60.2059 18.7331 54.6284 18.7331C49.922 18.7331 45.9307 21.8917 44.6696 26.1941C43.1355 25.7002 41.5493 25.3882 39.9372 25.2452C40.1192 24.5563 40.3532 23.8674 40.6393 23.2045C41.4063 21.3977 42.4984 19.773 43.8895 18.3821C45.2806 16.9913 46.9058 15.8865 48.7129 15.1326C50.5851 14.3267 52.5742 13.9237 54.6284 13.9237C56.6826 13.9237 58.6718 14.3267 60.5439 15.1196C62.3511 15.8865 63.9762 16.9783 65.3673 18.3692C66.7584 19.76 67.8505 21.3847 68.6176 23.1915C69.3587 24.9333 69.7617 26.779 69.8007 28.6768H72.7259Z" fill="white"/>
<path fill-rule="evenodd" clip-rule="evenodd" d="M65.2892 70.0761V66.8786H46.9577C47.0877 66.8136 47.2177 66.7616 47.3477 66.6966C49.3369 65.7477 51.1701 64.5129 52.8082 63.0051C53.0292 62.7971 53.2372 62.6021 53.4322 62.4072C53.6533 62.1862 53.8873 61.9522 54.1083 61.7053C54.3683 61.4193 54.6283 61.1203 54.8624 60.8214H65.2892V57.6238L74 63.85L65.2892 70.0761Z" fill="white"/>
<path fill-rule="evenodd" clip-rule="evenodd" d="M58.5287 46.9784C58.5287 49.747 57.9827 52.4376 56.9166 54.9723C56.0065 57.13 54.7324 59.1057 53.1463 60.8345C52.9382 61.0555 52.7302 61.2765 52.5222 61.4974C52.3272 61.6924 52.1322 61.8744 51.9372 62.0693C50.403 63.4862 48.6869 64.643 46.8147 65.5399C46.5547 65.6699 46.2817 65.7869 46.0087 65.9038C45.9957 65.9038 45.9957 65.9168 45.9827 65.9168C44.4225 66.5797 42.7454 66.9047 41.0422 66.9047H14V60.8605H39.1051C46.6977 60.8605 52.9252 54.7903 53.0292 47.1993C53.0292 47.1343 53.0292 47.0693 53.0292 47.0044C53.0292 38.7115 46.2947 31.9784 38 31.9784C29.7053 31.9524 22.9707 38.6725 22.9707 46.9784H26.455L20.2275 55.6872L14 46.9784H17.4843C17.4843 44.2097 18.0303 41.5191 19.0964 38.9844C20.1365 36.5408 21.6056 34.344 23.4908 32.4593C25.3759 30.5745 27.5731 29.0927 30.0173 28.0659C32.5525 27 35.2438 26.4541 38.013 26.4541C38.572 26.4541 39.1181 26.4801 39.6641 26.5191C41.2763 26.6491 42.8494 26.961 44.3835 27.468C44.9296 27.6499 45.4626 27.8449 45.9957 28.0789C48.4399 29.1187 50.637 30.5875 52.5222 32.4723C54.4074 34.357 55.8895 36.5538 56.9166 38.9974C57.9827 41.5191 58.5287 44.2097 58.5287 46.9784Z" fill="white"/>
<path d="M22.0091 97.112C21.1878 97.112 20.4518 96.9787 19.8011 96.712C19.1505 96.4453 18.6278 96.0507 18.2331 95.528C17.8491 95.0053 17.6465 94.376 17.6251 93.64H20.5371C20.5798 94.056 20.7238 94.376 20.9691 94.6C21.2145 94.8133 21.5345 94.92 21.9291 94.92C22.3345 94.92 22.6545 94.8293 22.8891 94.648C23.1238 94.456 23.2411 94.1947 23.2411 93.864C23.2411 93.5867 23.1451 93.3573 22.9531 93.176C22.7718 92.9947 22.5425 92.8453 22.2651 92.728C21.9985 92.6107 21.6145 92.4773 21.1131 92.328C20.3878 92.104 19.7958 91.88 19.3371 91.656C18.8785 91.432 18.4838 91.1013 18.1531 90.664C17.8225 90.2267 17.6571 89.656 17.6571 88.952C17.6571 87.9067 18.0358 87.0907 18.7931 86.504C19.5505 85.9067 20.5371 85.608 21.7531 85.608C22.9905 85.608 23.9878 85.9067 24.7451 86.504C25.5025 87.0907 25.9078 87.912 25.9611 88.968H23.0011C22.9798 88.6053 22.8465 88.3227 22.6011 88.12C22.3558 87.9067 22.0411 87.8 21.6571 87.8C21.3265 87.8 21.0598 87.8907 20.8571 88.072C20.6545 88.2427 20.5531 88.4933 20.5531 88.824C20.5531 89.1867 20.7238 89.4693 21.0651 89.672C21.4065 89.8747 21.9398 90.0933 22.6651 90.328C23.3905 90.5733 23.9771 90.808 24.4251 91.032C24.8838 91.256 25.2785 91.5813 25.6091 92.008C25.9398 92.4347 26.1051 92.984 26.1051 93.656C26.1051 94.296 25.9398 94.8773 25.6091 95.4C25.2891 95.9227 24.8198 96.3387 24.2011 96.648C23.5825 96.9573 22.8518 97.112 22.0091 97.112ZM27.2449 92.536C27.2449 91.608 27.4315 90.7973 27.8049 90.104C28.1889 89.4107 28.7169 88.8773 29.3889 88.504C30.0715 88.1307 30.8502 87.944 31.7249 87.944C32.8449 87.944 33.7782 88.2373 34.5249 88.824C35.2822 89.4107 35.7782 90.2373 36.0129 91.304H33.1009C32.8555 90.6213 32.3809 90.28 31.6769 90.28C31.1755 90.28 30.7755 90.4773 30.4769 90.872C30.1782 91.256 30.0289 91.8107 30.0289 92.536C30.0289 93.2613 30.1782 93.8213 30.4769 94.216C30.7755 94.6 31.1755 94.792 31.6769 94.792C32.3809 94.792 32.8555 94.4507 33.1009 93.768H36.0129C35.7782 94.8133 35.2822 95.6347 34.5249 96.232C33.7675 96.8293 32.8342 97.128 31.7249 97.128C30.8502 97.128 30.0715 96.9413 29.3889 96.568C28.7169 96.1947 28.1889 95.6613 27.8049 94.968C27.4315 94.2747 27.2449 93.464 27.2449 92.536ZM40.2124 89.56C40.5324 89.0693 40.9324 88.6853 41.4124 88.408C41.8924 88.12 42.4257 87.976 43.0124 87.976V90.872H42.2604C41.5777 90.872 41.0657 91.0213 40.7244 91.32C40.383 91.608 40.2124 92.12 40.2124 92.856V97H37.4764V88.072H40.2124V89.56ZM53.1361 88.072V97H50.4001V95.784C50.1228 96.1787 49.7441 96.4987 49.2641 96.744C48.7948 96.9787 48.2721 97.096 47.6961 97.096C47.0135 97.096 46.4108 96.9467 45.8881 96.648C45.3655 96.3387 44.9601 95.896 44.6721 95.32C44.3841 94.744 44.2401 94.0667 44.2401 93.288V88.072H46.9601V92.92C46.9601 93.5173 47.1148 93.9813 47.4241 94.312C47.7335 94.6427 48.1495 94.808 48.6721 94.808C49.2055 94.808 49.6268 94.6427 49.9361 94.312C50.2455 93.9813 50.4001 93.5173 50.4001 92.92V88.072H53.1361ZM66.4934 87.976C67.6027 87.976 68.4827 88.312 69.1334 88.984C69.7947 89.656 70.1254 90.5893 70.1254 91.784V97H67.4054V92.152C67.4054 91.576 67.2507 91.1333 66.9414 90.824C66.6427 90.504 66.2267 90.344 65.6934 90.344C65.16 90.344 64.7387 90.504 64.4294 90.824C64.1307 91.1333 63.9814 91.576 63.9814 92.152V97H61.2614V92.152C61.2614 91.576 61.1067 91.1333 60.7974 90.824C60.4987 90.504 60.0827 90.344 59.5494 90.344C59.016 90.344 58.5947 90.504 58.2854 90.824C57.9867 91.1333 57.8374 91.576 57.8374 92.152V97H55.1014V88.072H57.8374V89.192C58.1147 88.8187 58.4774 88.5253 58.9254 88.312C59.3734 88.088 59.88 87.976 60.4454 87.976C61.1174 87.976 61.7147 88.12 62.2374 88.408C62.7707 88.696 63.1867 89.1067 63.4854 89.64C63.7947 89.1493 64.216 88.7493 64.7494 88.44C65.2827 88.1307 65.864 87.976 66.4934 87.976Z" fill="white"/>
</svg>
