<svg width="60" height="60" viewBox="0 0 60 60" fill="none" xmlns="http://www.w3.org/2000/svg">
<path fill-rule="evenodd" clip-rule="evenodd" d="M58.7259 16.6768L53.4085 24.1118L48.091 16.6768H50.9903C50.7693 11.1525 46.2059 6.7331 40.6284 6.7331C35.922 6.7331 31.9307 9.89168 30.6696 14.1941C29.1355 13.7002 27.5493 13.3882 25.9372 13.2452C26.1192 12.5563 26.3532 11.8674 26.6393 11.2045C27.4063 9.39775 28.4984 7.77296 29.8895 6.38215C31.2806 4.99133 32.9058 3.88648 34.7129 3.13258C36.5851 2.32669 38.5742 1.92374 40.6284 1.92374C42.6826 1.92374 44.6718 2.32669 46.5439 3.11958C48.3511 3.88648 49.9762 4.97834 51.3673 6.36915C52.7584 7.75997 53.8505 9.38475 54.6176 11.1915C55.3587 12.9333 55.7617 14.779 55.8007 16.6768H58.7259Z" fill="white"/>
<path fill-rule="evenodd" clip-rule="evenodd" d="M51.2892 58.0761V54.8786H32.9577C33.0877 54.8136 33.2177 54.7616 33.3477 54.6966C35.3369 53.7477 37.1701 52.5129 38.8082 51.0051C39.0292 50.7971 39.2372 50.6021 39.4322 50.4072C39.6533 50.1862 39.8873 49.9522 40.1083 49.7053C40.3683 49.4193 40.6283 49.1203 40.8624 48.8214H51.2892V45.6238L60 51.85L51.2892 58.0761Z" fill="white"/>
<path fill-rule="evenodd" clip-rule="evenodd" d="M44.5287 34.9784C44.5287 37.747 43.9827 40.4376 42.9166 42.9723C42.0065 45.13 40.7324 47.1057 39.1463 48.8345C38.9382 49.0555 38.7302 49.2765 38.5222 49.4974C38.3272 49.6924 38.1322 49.8744 37.9372 50.0693C36.403 51.4862 34.6869 52.643 32.8147 53.5399C32.5547 53.6699 32.2817 53.7869 32.0087 53.9038C31.9957 53.9038 31.9957 53.9168 31.9827 53.9168C30.4225 54.5797 28.7454 54.9047 27.0422 54.9047H0V48.8605H25.1051C32.6977 48.8605 38.9252 42.7903 39.0292 35.1993C39.0292 35.1343 39.0292 35.0693 39.0292 35.0044C39.0292 26.7115 32.2947 19.9784 24 19.9784C15.7053 19.9524 8.97075 26.6725 8.97075 34.9784H12.455L6.22752 43.6872L0 34.9784H3.48429C3.48429 32.2097 4.03034 29.5191 5.09642 26.9844C6.13651 24.5408 7.60563 22.344 9.49079 20.4593C11.3759 18.5745 13.5731 17.0927 16.0173 16.0659C18.5525 15 21.2438 14.4541 24.013 14.4541C24.572 14.4541 25.1181 14.4801 25.6641 14.5191C27.2763 14.6491 28.8494 14.961 30.3835 15.468C30.9296 15.6499 31.4626 15.8449 31.9957 16.0789C34.4399 17.1187 36.637 18.5875 38.5222 20.4723C40.4074 22.357 41.8895 24.5538 42.9166 26.9974C43.9827 29.5191 44.5287 32.2097 44.5287 34.9784Z" fill="white"/>
</svg>
