<svg width="88" height="102" viewBox="0 0 88 102" fill="none" xmlns="http://www.w3.org/2000/svg">
<path d="M73.9454 16.7519C73.5084 14.4579 71.7333 12.6008 69.4665 12.1092C69.3573 12.0819 69.2481 12.0819 69.1115 12.0546C69.0842 12.0546 69.0569 12 69.0296 11.9727H18.9431C18.9158 12 18.8885 12.0546 18.8339 12.0546C16.5671 12.437 14.6554 14.2394 14.1365 16.5335C14.1092 16.6154 14.0546 16.7246 14 16.8339V67.0569C14.0273 67.1115 14.0819 67.1388 14.0819 67.1934C14.6281 69.706 16.1575 71.2626 18.6427 71.8908C18.7246 71.9181 18.7792 71.9727 18.8339 72.0273H69.1115C69.1661 72 69.1934 71.9454 69.2481 71.9181C71.7333 71.3446 73.2626 69.8425 73.8908 67.3573C73.9181 67.2754 73.8908 67.1661 73.9181 67.0842C73.9181 67.0569 73.9727 67.0296 74 67.0023V16.9158C74 16.8612 73.9454 16.8339 73.9454 16.7519ZM48.8202 45.2635H48.5198C46.2531 45.2635 43.959 45.2635 41.6923 45.2635C41.5831 45.2635 41.4738 45.2635 41.3646 45.2635C41.3646 45.2908 41.3373 45.2908 41.3373 45.3182C41.3373 45.4274 41.3373 45.5366 41.3373 45.6459V66.7019H35.3564V45.2908H27.8462V40.5116H48.7929V45.2635H48.8202ZM68.975 59.5467C68.9203 60.4752 68.7838 61.3764 68.4015 62.2503C68.2922 62.5234 68.2103 62.7692 68.0737 63.0423C67.5822 64.0801 66.7629 64.8175 65.807 65.4183C64.7146 66.101 63.513 66.4834 62.2567 66.7292C60.8639 67.0023 59.4711 67.0842 58.051 67.0296C57.3682 67.0023 56.6855 67.0023 56.0027 66.9203C54.3914 66.7292 52.8075 66.3741 51.3327 65.6641C51.2508 65.6368 51.1416 65.5002 51.1416 65.4183C51.1416 63.6431 51.1416 61.868 51.1416 60.0928C51.1416 60.0655 51.1416 60.0382 51.1416 59.9836C51.5785 60.284 52.0155 60.5844 52.4524 60.8302C53.5175 61.4583 54.6919 61.8953 55.8935 62.1684C56.9313 62.4142 57.9691 62.4415 59.0068 62.3869C59.7988 62.3596 60.5908 62.1684 61.3009 61.8134C61.929 61.4857 62.4479 61.0487 62.5844 60.3113C62.721 59.6559 62.6664 59.0005 62.284 58.4269C61.7378 57.6076 60.9731 57.0888 60.1265 56.6518C59.1707 56.1875 58.2148 55.7779 57.2317 55.3409C55.7843 54.6855 54.3641 53.9754 53.1898 52.883C52.234 51.9818 51.5239 50.9167 51.1962 49.6331C51.005 48.8685 50.9504 48.1038 50.9777 47.3391C51.005 45.4547 51.6878 43.8434 53.0259 42.5052C54.1183 41.4128 55.4565 40.7574 56.9313 40.3751C57.9417 40.1293 58.9522 39.9381 59.99 39.9108C60.7274 39.9108 61.4647 39.8289 62.1748 39.8562C63.2945 39.8835 64.3869 39.9381 65.4793 40.2112C66.1894 40.4024 66.9267 40.5935 67.6368 40.7574C67.7733 40.7847 67.8279 40.8666 67.8279 41.0305C67.8279 42.7237 67.8279 44.4442 67.8279 46.1375C67.8279 46.1921 67.8279 46.2467 67.8006 46.3286C67.5822 46.1921 67.391 46.0828 67.1998 45.9736C66.3259 45.482 65.3974 45.1543 64.4415 44.9085C63.3764 44.6627 62.3113 44.4989 61.2189 44.5262C60.4816 44.5535 59.7169 44.6627 59.0341 44.9085C58.1875 45.2089 57.5048 45.7005 57.2044 46.6017C56.9586 47.3118 57.1498 47.9126 57.5867 48.4861C58.1329 49.1962 58.8703 49.6878 59.6623 50.0701C60.7274 50.589 61.8198 51.0259 62.8575 51.5175C64.0592 52.091 65.2608 52.6645 66.2713 53.5112C67.1452 54.2485 67.9372 55.0678 68.3741 56.1602C68.6199 56.8157 68.8384 57.4984 68.8384 58.2358C68.9477 58.6727 69.0023 59.1097 68.975 59.5467Z" fill="white"/>
<path d="M8.70481 85.768V87.96H5.72881V97H2.99281V87.96H0.0168125V85.768H8.70481ZM19.1979 88.072L13.5979 101.24H10.6539L12.7019 96.696L9.06994 88.072H12.1259L14.1899 93.656L16.2379 88.072H19.1979ZM22.9233 89.336C23.19 88.92 23.558 88.584 24.0273 88.328C24.4966 88.072 25.046 87.944 25.6753 87.944C26.4113 87.944 27.078 88.1307 27.6753 88.504C28.2726 88.8773 28.742 89.4107 29.0833 90.104C29.4353 90.7973 29.6113 91.6027 29.6113 92.52C29.6113 93.4373 29.4353 94.248 29.0833 94.952C28.742 95.6453 28.2726 96.184 27.6753 96.568C27.078 96.9413 26.4113 97.128 25.6753 97.128C25.0566 97.128 24.5073 97 24.0273 96.744C23.558 96.488 23.19 96.1573 22.9233 95.752V101.256H20.1873V88.072H22.9233V89.336ZM26.8273 92.52C26.8273 91.8373 26.6353 91.304 26.2513 90.92C25.878 90.5253 25.414 90.328 24.8593 90.328C24.3153 90.328 23.8513 90.5253 23.4673 90.92C23.094 91.3147 22.9073 91.8533 22.9073 92.536C22.9073 93.2187 23.094 93.7573 23.4673 94.152C23.8513 94.5467 24.3153 94.744 24.8593 94.744C25.4033 94.744 25.8673 94.5467 26.2513 94.152C26.6353 93.7467 26.8273 93.2027 26.8273 92.52ZM39.4627 92.392C39.4627 92.648 39.4467 92.9147 39.4147 93.192H33.2227C33.2654 93.7467 33.4414 94.1733 33.7507 94.472C34.0707 94.76 34.46 94.904 34.9187 94.904C35.6014 94.904 36.076 94.616 36.3427 94.04H39.2547C39.1054 94.6267 38.8334 95.1547 38.4387 95.624C38.0547 96.0933 37.5694 96.4613 36.9827 96.728C36.396 96.9947 35.74 97.128 35.0147 97.128C34.14 97.128 33.3614 96.9413 32.6787 96.568C31.996 96.1947 31.4627 95.6613 31.0787 94.968C30.6947 94.2747 30.5027 93.464 30.5027 92.536C30.5027 91.608 30.6894 90.7973 31.0627 90.104C31.4467 89.4107 31.98 88.8773 32.6627 88.504C33.3454 88.1307 34.1294 87.944 35.0147 87.944C35.8787 87.944 36.6467 88.1253 37.3187 88.488C37.9907 88.8507 38.5134 89.368 38.8867 90.04C39.2707 90.712 39.4627 91.496 39.4627 92.392ZM36.6627 91.672C36.6627 91.2027 36.5027 90.8293 36.1827 90.552C35.8627 90.2747 35.4627 90.136 34.9827 90.136C34.524 90.136 34.1347 90.2693 33.8147 90.536C33.5054 90.8027 33.3134 91.1813 33.2387 91.672H36.6627ZM44.9701 97.112C44.1487 97.112 43.4127 96.9787 42.7621 96.712C42.1114 96.4453 41.5887 96.0507 41.1941 95.528C40.8101 95.0053 40.6074 94.376 40.5861 93.64H43.4981C43.5407 94.056 43.6847 94.376 43.9301 94.6C44.1754 94.8133 44.4954 94.92 44.8901 94.92C45.2954 94.92 45.6154 94.8293 45.8501 94.648C46.0847 94.456 46.2021 94.1947 46.2021 93.864C46.2021 93.5867 46.1061 93.3573 45.9141 93.176C45.7327 92.9947 45.5034 92.8453 45.2261 92.728C44.9594 92.6107 44.5754 92.4773 44.0741 92.328C43.3487 92.104 42.7567 91.88 42.2981 91.656C41.8394 91.432 41.4447 91.1013 41.1141 90.664C40.7834 90.2267 40.6181 89.656 40.6181 88.952C40.6181 87.9067 40.9967 87.0907 41.7541 86.504C42.5114 85.9067 43.4981 85.608 44.7141 85.608C45.9514 85.608 46.9487 85.9067 47.7061 86.504C48.4634 87.0907 48.8687 87.912 48.9221 88.968H45.9621C45.9407 88.6053 45.8074 88.3227 45.5621 88.12C45.3167 87.9067 45.0021 87.8 44.6181 87.8C44.2874 87.8 44.0207 87.8907 43.8181 88.072C43.6154 88.2427 43.5141 88.4933 43.5141 88.824C43.5141 89.1867 43.6847 89.4693 44.0261 89.672C44.3674 89.8747 44.9007 90.0933 45.6261 90.328C46.3514 90.5733 46.9381 90.808 47.3861 91.032C47.8447 91.256 48.2394 91.5813 48.5701 92.008C48.9007 92.4347 49.0661 92.984 49.0661 93.656C49.0661 94.296 48.9007 94.8773 48.5701 95.4C48.2501 95.9227 47.7807 96.3387 47.1621 96.648C46.5434 96.9573 45.8127 97.112 44.9701 97.112ZM50.2058 92.536C50.2058 91.608 50.3925 90.7973 50.7658 90.104C51.1498 89.4107 51.6778 88.8773 52.3498 88.504C53.0325 88.1307 53.8111 87.944 54.6858 87.944C55.8058 87.944 56.7391 88.2373 57.4858 88.824C58.2431 89.4107 58.7391 90.2373 58.9738 91.304H56.0618C55.8165 90.6213 55.3418 90.28 54.6378 90.28C54.1365 90.28 53.7365 90.4773 53.4378 90.872C53.1391 91.256 52.9898 91.8107 52.9898 92.536C52.9898 93.2613 53.1391 93.8213 53.4378 94.216C53.7365 94.6 54.1365 94.792 54.6378 94.792C55.3418 94.792 55.8165 94.4507 56.0618 93.768H58.9738C58.7391 94.8133 58.2431 95.6347 57.4858 96.232C56.7285 96.8293 55.7951 97.128 54.6858 97.128C53.8111 97.128 53.0325 96.9413 52.3498 96.568C51.6778 96.1947 51.1498 95.6613 50.7658 94.968C50.3925 94.2747 50.2058 93.464 50.2058 92.536ZM63.1733 89.56C63.4933 89.0693 63.8933 88.6853 64.3733 88.408C64.8533 88.12 65.3866 87.976 65.9733 87.976V90.872H65.2213C64.5386 90.872 64.0266 91.0213 63.6853 91.32C63.344 91.608 63.1733 92.12 63.1733 92.856V97H60.4373V88.072H63.1733V89.56ZM68.6571 87.144C68.1771 87.144 67.7824 87.0053 67.4731 86.728C67.1744 86.44 67.0251 86.088 67.0251 85.672C67.0251 85.2453 67.1744 84.8933 67.4731 84.616C67.7824 84.328 68.1771 84.184 68.6571 84.184C69.1264 84.184 69.5104 84.328 69.8091 84.616C70.1184 84.8933 70.2731 85.2453 70.2731 85.672C70.2731 86.088 70.1184 86.44 69.8091 86.728C69.5104 87.0053 69.1264 87.144 68.6571 87.144ZM70.0171 88.072V97H67.2811V88.072H70.0171ZM74.7358 89.336C75.0025 88.92 75.3705 88.584 75.8398 88.328C76.3091 88.072 76.8585 87.944 77.4878 87.944C78.2238 87.944 78.8905 88.1307 79.4878 88.504C80.0851 88.8773 80.5545 89.4107 80.8958 90.104C81.2478 90.7973 81.4238 91.6027 81.4238 92.52C81.4238 93.4373 81.2478 94.248 80.8958 94.952C80.5545 95.6453 80.0851 96.184 79.4878 96.568C78.8905 96.9413 78.2238 97.128 77.4878 97.128C76.8691 97.128 76.3198 97 75.8398 96.744C75.3705 96.488 75.0025 96.1573 74.7358 95.752V101.256H71.9998V88.072H74.7358V89.336ZM78.6398 92.52C78.6398 91.8373 78.4478 91.304 78.0638 90.92C77.6905 90.5253 77.2265 90.328 76.6718 90.328C76.1278 90.328 75.6638 90.5253 75.2798 90.92C74.9065 91.3147 74.7198 91.8533 74.7198 92.536C74.7198 93.2187 74.9065 93.7573 75.2798 94.152C75.6638 94.5467 76.1278 94.744 76.6718 94.744C77.2158 94.744 77.6798 94.5467 78.0638 94.152C78.4478 93.7467 78.6398 93.2027 78.6398 92.52ZM87.8352 94.68V97H86.4432C85.4512 97 84.6779 96.76 84.1232 96.28C83.5685 95.7893 83.2912 94.9947 83.2912 93.896V90.344H82.2032V88.072H83.2912V85.896H86.0272V88.072H87.8192V90.344H86.0272V93.928C86.0272 94.1947 86.0912 94.3867 86.2192 94.504C86.3472 94.6213 86.5605 94.68 86.8592 94.68H87.8352Z" fill="white"/>
</svg>
