<svg width="28" height="160" viewBox="0 0 28 160" fill="none" xmlns="http://www.w3.org/2000/svg">
<path d="M5.839 6.854C5.839 5.796 6.023 4.84533 6.391 4.002C6.77433 3.174 7.29567 2.52233 7.955 2.047C8.62967 1.57167 9.404 1.32633 10.278 1.311L10.278 3.542C9.52667 3.61867 8.89033 3.92533 8.369 4.462C7.863 5.014 7.61 5.81133 7.61 6.854C7.61 7.85067 7.85533 8.63267 8.346 9.2C8.852 9.78267 9.496 10.074 10.278 10.074C10.8913 10.074 11.3897 9.90533 11.773 9.568C12.1563 9.23067 12.4477 8.809 12.647 8.303C12.8463 7.797 13.061 7.11467 13.291 6.256C13.567 5.198 13.843 4.347 14.119 3.703C14.395 3.07433 14.8243 2.53 15.407 2.07C16.005 1.62533 16.8023 1.403 17.799 1.403C18.673 1.403 19.4473 1.62533 20.122 2.07C20.7967 2.51467 21.318 3.13567 21.686 3.933C22.054 4.74567 22.238 5.67333 22.238 6.716C22.238 8.21867 21.8623 9.44533 21.111 10.396C20.3597 11.362 19.363 11.9063 18.121 12.029L18.121 9.729C18.7343 9.65233 19.271 9.33033 19.731 8.763C20.2063 8.19567 20.444 7.44433 20.444 6.509C20.444 5.635 20.214 4.922 19.754 4.37C19.3093 3.818 18.6807 3.542 17.868 3.542C17.2853 3.542 16.81 3.703 16.442 4.025C16.074 4.36233 15.7903 4.76867 15.591 5.244C15.407 5.73467 15.1923 6.417 14.947 7.291C14.6557 8.349 14.3643 9.2 14.073 9.844C13.797 10.488 13.36 11.04 12.762 11.5C12.1793 11.96 11.382 12.19 10.37 12.19C9.588 12.19 8.852 11.983 8.162 11.569C7.472 11.155 6.91233 10.5417 6.483 9.729C6.05367 8.91633 5.839 7.958 5.839 6.854ZM12.325 14.488C13.6283 14.488 14.763 14.7487 15.729 15.27C16.7103 15.7914 17.4693 16.512 18.006 17.432C18.5427 18.3674 18.811 19.433 18.811 20.629C18.811 22.1777 18.4353 23.4504 17.684 24.447C16.9327 25.459 15.89 26.126 14.556 26.448L14.556 24.194C15.3227 23.9794 15.9283 23.5577 16.373 22.929C16.8177 22.3157 17.04 21.549 17.04 20.629C17.04 19.433 16.626 18.467 15.798 17.731C14.9853 16.995 13.8277 16.627 12.325 16.627C10.807 16.627 9.634 16.995 8.806 17.731C7.978 18.467 7.564 19.433 7.564 20.629C7.564 21.549 7.77867 22.3157 8.208 22.929C8.63733 23.5424 9.25067 23.964 10.048 24.194L10.048 26.448C8.76 26.1107 7.725 25.436 6.943 24.424C6.17633 23.412 5.793 22.147 5.793 20.629C5.793 19.433 6.06133 18.3674 6.598 17.432C7.13467 16.512 7.89367 15.7914 8.875 15.27C9.85633 14.7487 11.0063 14.488 12.325 14.488ZM16.557 31.3337C17.2777 31.7017 17.8373 32.2231 18.236 32.8977C18.6347 33.5877 18.834 34.4234 18.834 35.4047L16.672 35.4047L16.672 34.8527C16.672 32.5067 15.3993 31.3337 12.854 31.3337L6 31.3337L6 29.2407L18.604 29.2407L18.604 31.3337L16.557 31.3337ZM5.793 43.3178C5.793 42.1371 6.06133 41.0638 6.598 40.0978C7.13467 39.1471 7.89367 38.3958 8.875 37.8438C9.87167 37.3071 11.0217 37.0388 12.325 37.0388C13.613 37.0388 14.7477 37.3148 15.729 37.8668C16.7257 38.4341 17.4847 39.2008 18.006 40.1668C18.5427 41.1328 18.811 42.2138 18.811 43.4098C18.811 44.6058 18.5427 45.6868 18.006 46.6528C17.4847 47.6188 16.7333 48.3778 15.752 48.9298C14.7707 49.4971 13.6283 49.7808 12.325 49.7808C11.0217 49.7808 9.87166 49.4895 8.875 48.9068C7.89366 48.3395 7.13466 47.5651 6.598 46.5838C6.06133 45.6025 5.793 44.5138 5.793 43.3178ZM7.633 43.3178C7.633 44.0691 7.80933 44.7745 8.162 45.4338C8.51466 46.0931 9.04366 46.6221 9.749 47.0208C10.4543 47.4348 11.313 47.6418 12.325 47.6418C13.337 47.6418 14.1957 47.4425 14.901 47.0438C15.6063 46.6451 16.1277 46.1238 16.465 45.4798C16.8177 44.8358 16.994 44.1381 16.994 43.3868C16.994 42.6201 16.8177 41.9148 16.465 41.2708C16.1277 40.6421 15.6063 40.1361 14.901 39.7528C14.1957 39.3695 13.337 39.1778 12.325 39.1778C11.2977 39.1778 10.4313 39.3618 9.726 39.7298C9.02066 40.1131 8.49166 40.6191 8.139 41.2478C7.80166 41.8765 7.633 42.5665 7.633 43.3178ZM23.02 54.6257L6 54.6257L6 52.5327L23.02 52.5327L23.02 54.6257ZM23.02 60.2859L6 60.2859L6 58.1929L23.02 58.1929L23.02 60.2859ZM12.348 69.2029C13.636 69.2029 14.763 69.4635 15.729 69.9849C16.7103 70.5062 17.4693 71.2192 18.006 72.1239C18.5427 73.0439 18.811 74.0712 18.811 75.2059C18.811 76.1872 18.581 77.0995 18.121 77.9429C17.6763 78.7862 17.086 79.4302 16.35 79.8749L23.02 79.8749L23.02 81.9909L6 81.9909L6 79.8749L8.369 79.8749C7.61766 79.4609 6.99666 78.8475 6.506 78.0349C6.03066 77.2222 5.793 76.2715 5.793 75.1829C5.793 74.0635 6.069 73.0439 6.621 72.1239C7.173 71.2192 7.94733 70.5062 8.944 69.9849C9.94066 69.4635 11.0753 69.2029 12.348 69.2029ZM12.325 79.8749C13.2757 79.8749 14.1037 79.6832 14.809 79.2999C15.5143 78.9165 16.051 78.3952 16.419 77.7359C16.8023 77.0919 16.994 76.3789 16.994 75.5969C16.994 74.8149 16.81 74.1019 16.442 73.4579C16.074 72.8139 15.5373 72.3002 14.832 71.9169C14.1267 71.5335 13.2987 71.3419 12.348 71.3419C11.382 71.3419 10.5387 71.5335 9.818 71.9169C9.11266 72.3002 8.56833 72.8139 8.185 73.4579C7.817 74.1019 7.633 74.8149 7.633 75.5969C7.633 76.3789 7.817 77.0919 8.185 77.7359C8.56833 78.3952 9.11266 78.9165 9.818 79.2999C10.5387 79.6832 11.3743 79.8749 12.325 79.8749ZM5.793 91.0248C5.793 89.8442 6.06133 88.7708 6.598 87.8048C7.13466 86.8542 7.89366 86.1028 8.875 85.5508C9.87166 85.0142 11.0217 84.7458 12.325 84.7458C13.613 84.7458 14.7477 85.0218 15.729 85.5738C16.7257 86.1412 17.4847 86.9078 18.006 87.8738C18.5427 88.8398 18.811 89.9208 18.811 91.1168C18.811 92.3128 18.5427 93.3938 18.006 94.3598C17.4847 95.3258 16.7333 96.0848 15.752 96.6368C14.7707 97.2042 13.6283 97.4878 12.325 97.4878C11.0217 97.4878 9.87166 97.1965 8.875 96.6138C7.89366 96.0465 7.13466 95.2722 6.598 94.2908C6.06133 93.3095 5.793 92.2208 5.793 91.0248ZM7.633 91.0248C7.633 91.7762 7.80933 92.4815 8.162 93.1408C8.51466 93.8002 9.04366 94.3292 9.749 94.7278C10.4543 95.1418 11.313 95.3488 12.325 95.3488C13.337 95.3488 14.1957 95.1495 14.901 94.7508C15.6063 94.3522 16.1277 93.8308 16.465 93.1868C16.8177 92.5428 16.994 91.8452 16.994 91.0938C16.994 90.3272 16.8177 89.6218 16.465 88.9778C16.1277 88.3492 15.6063 87.8432 14.901 87.4598C14.1957 87.0765 13.337 86.8848 12.325 86.8848C11.2977 86.8848 10.4313 87.0688 9.726 87.4368C9.02066 87.8202 8.49166 88.3262 8.139 88.9548C7.80166 89.5835 7.633 90.2735 7.633 91.0248ZM18.604 117.03L6 113.097L6 110.935L16.005 107.899L6 104.863L6 102.701L18.604 98.7447L18.604 100.884L8.024 103.782L18.604 106.91L18.604 109.049L8.001 112.108L18.604 114.96L18.604 117.03ZM18.834 125.248C18.834 126.781 18.3663 128.023 17.431 128.974C16.511 129.925 15.177 130.4 13.429 130.4L5.99999 130.4L5.99999 128.33L13.13 128.33C14.3873 128.33 15.3457 128.016 16.005 127.387C16.6797 126.758 17.017 125.9 17.017 124.811C17.017 123.707 16.672 122.825 15.982 122.166C15.292 121.522 14.2877 121.2 12.969 121.2L5.99999 121.2L5.99999 119.107L18.604 119.107L18.604 121.2L16.81 121.2C17.454 121.614 17.9523 122.174 18.305 122.879C18.6577 123.6 18.834 124.389 18.834 125.248Z" fill="white"/>
<path d="M13 152.172L17.657 147.515C18.0475 147.125 18.6805 147.125 19.071 147.515C19.4615 147.905 19.4614 148.539 19.071 148.929L12.7071 155.293C12.3166 155.683 11.6834 155.683 11.2929 155.293L4.92898 148.929C4.53852 148.539 4.53852 147.905 4.92898 147.515C5.31945 147.125 5.95252 147.125 6.34299 147.515L11 152.172V141C11 140.448 11.4477 140 12 140C12.5523 140 13 140.448 13 141V152.172Z" fill="white"/>
</svg>
