<svg width="325" height="976" viewBox="0 0 325 976" fill="none" xmlns="http://www.w3.org/2000/svg">
<g filter="url(#filter0_f_35_40)">
<path d="M-470.008 882.453C-539.541 881.662 -212.346 369.36 -212.346 369.36C-212.346 369.36 -93.3322 304.189 -2.53012 236.725C-33.3439 167.231 7.95888 66.8694 79.6118 99.2662C129.889 121.998 73.5931 180.167 -2.53012 236.725C14.0679 274.158 51.5904 302.635 116.565 296.583C302.164 279.294 208.054 398.555 208.054 398.555C208.054 398.555 133.601 465.363 142.734 533.021L142.815 533.623C151.873 600.711 152.599 606.085 -112.156 693.452C-377.701 781.079 -400.476 883.244 -470.008 882.453Z" fill="#70E61C"/>
</g>
<defs>
<filter id="filter0_f_35_40" x="-572.705" y="7.62939e-06" width="897.618" height="975.457" filterUnits="userSpaceOnUse" color-interpolation-filters="sRGB">
<feFlood flood-opacity="0" result="BackgroundImageFix"/>
<feBlend mode="normal" in="SourceGraphic" in2="BackgroundImageFix" result="shape"/>
<feGaussianBlur stdDeviation="46.5" result="effect1_foregroundBlur_35_40"/>
</filter>
</defs>
</svg>
