<svg width="678" height="805" viewBox="0 0 678 805" fill="none" xmlns="http://www.w3.org/2000/svg">
<g filter="url(#filter0_f_167_882)">
<path d="M405.303 707.181C405.978 651.375 391.433 576.058 355.658 476.621C392.332 394.133 819.289 789.04 405.303 707.181C402.116 970.522 60.0189 799.421 10.5824 678.325C-64.3086 494.876 -88.3907 485.357 -163.612 450.295C-238.833 415.233 -395.212 305.537 -256.876 258.562C-250.43 256.374 -244.646 254.48 -239.467 252.861C-257.883 223.82 -263.193 187.32 -209.085 150.543C69.8372 -39.0399 423.098 290.248 321.492 412.278C228.333 524.164 358.304 697.888 405.303 707.181Z" fill="#9747FF"/>
</g>
<defs>
<filter id="filter0_f_167_882" x="-405.043" y="0" width="1082.79" height="938.802" filterUnits="userSpaceOnUse" color-interpolation-filters="sRGB">
<feFlood flood-opacity="0" result="BackgroundImageFix"/>
<feBlend mode="normal" in="SourceGraphic" in2="BackgroundImageFix" result="shape"/>
<feGaussianBlur stdDeviation="46.5" result="effect1_foregroundBlur_167_882"/>
</filter>
</defs>
</svg>
